<svg width="100" height="100" viewBox="0 0 100 100" fill="none" xmlns="http://www.w3.org/2000/svg">
<g clip-path="url(#clip0_390_3074)">
<circle cx="50" cy="50" r="50" fill="#EBF2FF"/>
<path d="M71.93 43.3875L68.51 33.1275C68.0139 31.6337 67.0596 30.3343 65.7828 29.4138C64.506 28.4933 62.9715 27.9986 61.3975 28H38.6025C37.0285 27.9986 35.494 28.4933 34.2172 29.4138C32.9404 30.3343 31.9861 31.6337 31.49 33.1275L28.07 43.3875C27.1606 43.768 26.3839 44.4089 25.8377 45.2296C25.2914 46.0503 25 47.0142 25 48V60.5C25 62.345 26.01 63.94 27.5 64.8075V70.5C27.5 71.163 27.7634 71.7989 28.2322 72.2678C28.7011 72.7366 29.337 73 30 73H32.5C33.163 73 33.7989 72.7366 34.2678 72.2678C34.7366 71.7989 35 71.163 35 70.5V65.5H65V70.5C65 71.163 65.2634 71.7989 65.7322 72.2678C66.2011 72.7366 66.837 73 67.5 73H70C70.663 73 71.2989 72.7366 71.7678 72.2678C72.2366 71.7989 72.5 71.163 72.5 70.5V64.8075C73.2585 64.3725 73.8889 63.7453 74.3278 62.9891C74.7667 62.2329 74.9986 61.3744 75 60.5V48C75 47.0142 74.7086 46.0503 74.1623 45.2296C73.6161 44.4089 72.8394 43.768 71.93 43.3875ZM38.6025 33H61.395C62.4725 33 63.4275 33.685 63.7675 34.71L66.5325 43H33.4675L36.23 34.71C36.3959 34.212 36.7143 33.7788 37.1401 33.4719C37.566 33.165 38.0776 32.9999 38.6025 33ZM33.75 58C33.2574 57.9998 32.7696 57.9026 32.3146 57.714C31.8595 57.5253 31.4461 57.2489 31.0978 56.9004C30.7496 56.5519 30.4734 56.1383 30.2851 55.6831C30.0967 55.228 29.9998 54.7401 30 54.2475C30.0002 53.7549 30.0974 53.2671 30.286 52.8121C30.4747 52.357 30.7511 51.9436 31.0996 51.5953C31.4481 51.2471 31.8617 50.9709 32.3169 50.7826C32.772 50.5942 33.2599 50.4973 33.7525 50.4975C34.7474 50.4978 35.7014 50.8934 36.4047 51.5971C37.1079 52.3008 37.5028 53.2551 37.5025 54.25C37.5022 55.2449 37.1066 56.1989 36.4029 56.9022C35.6992 57.6054 34.7449 58.0003 33.75 58ZM66.25 58C65.7574 57.9998 65.2696 57.9026 64.8146 57.714C64.3595 57.5253 63.9461 57.2489 63.5978 56.9004C63.2496 56.5519 62.9734 56.1383 62.7851 55.6831C62.5967 55.228 62.4998 54.7401 62.5 54.2475C62.5002 53.7549 62.5974 53.2671 62.786 52.8121C62.9747 52.357 63.2511 51.9436 63.5996 51.5953C63.9481 51.2471 64.3617 50.9709 64.8169 50.7826C65.2721 50.5942 65.7599 50.4973 66.2525 50.4975C67.2474 50.4978 68.2014 50.8934 68.9047 51.5971C69.6079 52.3008 70.0028 53.2551 70.0025 54.25C70.0022 55.2449 69.6066 56.1989 68.9029 56.9022C68.1992 57.6054 67.2449 58.0003 66.25 58Z" fill="#073BA1"/>
</g>
<defs>
<clipPath id="clip0_390_3074">
<rect width="100" height="100" fill="white"/>
</clipPath>
</defs>
</svg>
