<svg width="64" height="64" viewBox="0 0 64 64" fill="none" xmlns="http://www.w3.org/2000/svg">
<path fill-rule="evenodd" clip-rule="evenodd" d="M20.2715 7.74379C21.26 7.31153 21.7109 6.15979 21.2787 5.17129C20.8464 4.1828 19.6947 3.73188 18.7062 4.16414C12.8282 6.73454 7.84064 10.9554 4.32696 16.2401C3.72962 17.1385 3.97368 18.351 4.8721 18.9484C5.77051 19.5457 6.98306 19.3017 7.58041 18.4032C10.6832 13.7367 15.0874 10.0108 20.2715 7.74379ZM45.2938 4.16414C44.3053 3.73188 43.1536 4.1828 42.7213 5.17129C42.2891 6.15979 42.74 7.31153 43.7285 7.74379C48.9126 10.0108 53.3168 13.7367 56.4196 18.4032C57.0169 19.3017 58.2295 19.5457 59.1279 18.9484C60.0263 18.351 60.2704 17.1385 59.673 16.2401C56.1594 10.9554 51.1718 6.73454 45.2938 4.16414ZM50.2108 49.3675C53.4819 45.3373 55.4421 40.2001 55.4421 34.605C55.4421 21.6585 44.9469 11.1633 32.0004 11.1633C19.0539 11.1633 8.55873 21.6585 8.55873 34.605C8.55873 40.2001 10.5189 45.3373 13.79 49.3675L9.45959 57.091C8.93196 58.0321 9.26711 59.2227 10.2082 59.7503C11.1492 60.2779 12.3398 59.9428 12.8674 59.0017L16.6248 52.3002C20.7407 55.8797 26.1175 58.0467 32.0004 58.0467C37.8834 58.0467 43.2601 55.8796 47.376 52.3002L51.1337 59.0018C51.6614 59.9428 52.852 60.2779 53.793 59.7503C54.7341 59.2226 55.0692 58.032 54.5415 57.091L50.2108 49.3675ZM41.1002 27.9258C41.9121 28.6363 41.9944 29.8704 41.2839 30.6824L33.8089 39.2253C32.2026 41.061 29.4359 41.3068 27.5311 39.783L22.9657 36.1307C22.1232 35.4567 21.9866 34.2274 22.6606 33.3849C23.3346 32.5425 24.5639 32.4059 25.4063 33.0798L29.9718 36.7322C30.2439 36.9499 30.6391 36.9148 30.8686 36.6525L38.3436 28.1096C39.0541 27.2977 40.2882 27.2154 41.1002 27.9258Z" fill="#073BA1"/>
</svg>
