<svg width="100" height="100" viewBox="0 0 100 100" fill="none" xmlns="http://www.w3.org/2000/svg">
<g clip-path="url(#clip0_349_2427)">
<circle cx="50" cy="50" r="50" fill="#EBF2FF"/>
<path d="M62.5 56.7502C62.0264 56.7502 61.5722 56.9214 61.2373 57.2262C60.9024 57.5309 60.7143 57.9442 60.7143 58.3752C60.7143 58.8062 60.9024 59.2195 61.2373 59.5243C61.5722 59.829 62.0264 60.0002 62.5 60.0002H66.0714C66.545 60.0002 66.9992 59.829 67.3341 59.5243C67.669 59.2195 67.8571 58.8062 67.8571 58.3752C67.8571 57.9442 67.669 57.5309 67.3341 57.2262C66.9992 56.9214 66.545 56.7502 66.0714 56.7502H62.5ZM30.3571 34H38.1036L35.6036 37.25H30.3571C29.8835 37.25 29.4293 37.4212 29.0945 37.726C28.7596 38.0307 28.5714 38.4441 28.5714 38.875C28.5714 39.306 28.7596 39.7194 29.0945 40.0241C29.4293 40.3289 29.8835 40.5001 30.3571 40.5001H67.8571C69.7515 40.5001 71.5684 41.1849 72.9079 42.4039C74.2475 43.6229 75 45.2762 75 47.0001V66.5003C75 68.2242 74.2475 69.8775 72.9079 71.0965C71.5684 72.3155 69.7515 73.0003 67.8571 73.0003H33.9286C31.5606 73.0003 29.2896 72.1443 27.6151 70.6206C25.9407 69.0968 25 67.0302 25 64.8753V38.875C25 37.5821 25.5644 36.3421 26.5691 35.4279C27.5737 34.5136 28.9363 34 30.3571 34ZM28.5714 64.8753C28.5714 66.1682 29.1358 67.4082 30.1405 68.3225C31.1452 69.2367 32.5078 69.7503 33.9286 69.7503H67.8571C68.8043 69.7503 69.7128 69.4079 70.3825 68.7984C71.0523 68.1889 71.4286 67.3623 71.4286 66.5003V47.0001C71.4286 46.1382 71.0523 45.3115 70.3825 44.702C69.7128 44.0925 68.8043 43.7501 67.8571 43.7501H30.3571C29.7321 43.7501 29.1286 43.6526 28.5714 43.4738V64.8753Z" fill="#073BA1"/>
<path d="M50.0069 23.0861C50.428 22.5367 50.969 22.0722 51.5961 21.7215C52.2233 21.3708 52.9232 21.1415 53.652 21.0478C54.3809 20.9542 55.1231 20.9983 55.8325 21.1773C56.5418 21.3563 57.203 21.6665 57.7747 22.0883L69.4533 30.7172C70.4968 31.4877 71.1839 32.5871 71.3784 33.7971C71.5729 35.0071 71.2605 36.2395 70.5033 37.2497H66.1461L67.539 35.433C67.7983 35.0964 67.9078 34.683 67.8455 34.276C67.7832 33.8689 67.5537 33.4984 67.2033 33.2392L61.189 28.7997L54.7747 37.2497H50.4283L58.4069 26.7456L55.5211 24.6136C55.3306 24.4729 55.1103 24.3695 54.8739 24.3097C54.6375 24.25 54.3901 24.2352 54.1472 24.2663C53.9042 24.2974 53.6709 24.3737 53.4618 24.4905C53.2527 24.6073 53.0723 24.7621 52.9319 24.9451L43.4997 37.2465H39.1426L50.0069 23.0861Z" fill="#EC3D5A"/>
</g>
<defs>
<clipPath id="clip0_349_2427">
<rect width="100" height="100" fill="white"/>
</clipPath>
</defs>
</svg>
