<svg width="24" height="24" viewBox="0 0 24 24" fill="none" xmlns="http://www.w3.org/2000/svg">
<path d="M4.21046 5H19.7895C21.2593 5 22 5.68833 22 7.08833V16.9117C22 18.3 21.2593 19 19.7895 19H4.21046C2.74074 19 2 18.3 2 16.9117V7.08833C2 5.68833 2.74074 5 4.21046 5ZM11.9941 15.0333L19.9189 8.58167C20.2011 8.34833 20.4245 7.81167 20.0717 7.33333C19.7307 6.855 19.1076 6.84333 18.6961 7.135L11.9941 11.6383L5.30394 7.135C4.89242 6.84333 4.26925 6.855 3.92828 7.33333C3.57554 7.81167 3.79894 8.34833 4.08113 8.58167L11.9941 15.0333Z" fill="#073BA1"/>
</svg>
