<svg width="24" height="24" viewBox="0 0 24 24" fill="none" xmlns="http://www.w3.org/2000/svg">
<g clip-path="url(#clip0_780_5898)">
<path d="M19.0266 8.66665H4.97331C4.7965 8.66665 4.62693 8.59641 4.5019 8.47138C4.37688 8.34636 4.30664 8.17679 4.30664 7.99998C4.30664 7.82317 4.37688 7.6536 4.5019 7.52858C4.62693 7.40355 4.7965 7.33331 4.97331 7.33331H19.0266C19.2035 7.33331 19.373 7.40355 19.498 7.52858C19.6231 7.6536 19.6933 7.82317 19.6933 7.99998C19.6933 8.17679 19.6231 8.34636 19.498 8.47138C19.373 8.59641 19.2035 8.66665 19.0266 8.66665Z" fill="#073BA1"/>
<path d="M14.1133 12.6666H4.97331C4.7965 12.6666 4.62693 12.5964 4.5019 12.4714C4.37688 12.3464 4.30664 12.1768 4.30664 12C4.30664 11.8232 4.37688 11.6536 4.5019 11.5286C4.62693 11.4036 4.7965 11.3333 4.97331 11.3333H14.1133C14.2901 11.3333 14.4597 11.4036 14.5847 11.5286C14.7097 11.6536 14.78 11.8232 14.78 12C14.78 12.1768 14.7097 12.3464 14.5847 12.4714C14.4597 12.5964 14.2901 12.6666 14.1133 12.6666Z" fill="#073BA1"/>
<path d="M9.15997 16.6666H4.97331C4.7965 16.6666 4.62693 16.5964 4.5019 16.4714C4.37688 16.3464 4.30664 16.1768 4.30664 16C4.30664 15.8232 4.37688 15.6536 4.5019 15.5286C4.62693 15.4036 4.7965 15.3333 4.97331 15.3333H9.15997C9.33678 15.3333 9.50635 15.4036 9.63138 15.5286C9.7564 15.6536 9.82664 15.8232 9.82664 16C9.82664 16.1768 9.7564 16.3464 9.63138 16.4714C9.50635 16.5964 9.33678 16.6666 9.15997 16.6666Z" fill="#073BA1"/>
</g>
<defs>
<clipPath id="clip0_780_5898">
<rect width="24" height="24" fill="white"/>
</clipPath>
</defs>
</svg>
