<svg width="100" height="100" viewBox="0 0 100 100" fill="none" xmlns="http://www.w3.org/2000/svg">
<g clip-path="url(#clip0_594_4504)">
<circle cx="50" cy="50" r="50" fill="#EBF2FF"/>
<path d="M66.5013 22H39.1832C36.1424 22 33.6818 24.5172 33.6818 27.628V43.4116L20.8124 56.4092C20.4268 56.7993 20.1632 57.2979 20.055 57.8416C19.9468 58.3852 19.999 58.9495 20.2048 59.4628C20.4107 59.9761 20.761 60.4153 21.2112 60.7246C21.6615 61.0339 22.1914 61.1993 22.7338 61.2V75.2C22.7338 75.9426 23.0221 76.6548 23.5354 77.1799C24.0487 77.705 24.7449 78 25.4708 78H69.263C69.9889 78 70.6851 77.705 71.1983 77.1799C71.7116 76.6548 72 75.9426 72 75.2V27.6252C72 24.5172 69.5422 22 66.5013 22ZM44.4164 58.7108V72.4H28.2078V56.8096L36.3832 48.5524L44.4164 56.9608V58.7108ZM50.1039 41.6H44.6299V36H50.1039V41.6ZM61.0519 64H55.5779V58.4H61.0519V64ZM61.0519 52.8H55.5779V47.2H61.0519V52.8ZM61.0519 41.6H55.5779V36H61.0519V41.6Z" fill="#073BA1"/>
</g>
<defs>
<clipPath id="clip0_594_4504">
<rect width="100" height="100" fill="white"/>
</clipPath>
</defs>
</svg>
