<svg width="100" height="100" viewBox="0 0 100 100" fill="none" xmlns="http://www.w3.org/2000/svg">
<g clip-path="url(#clip0_594_7937)">
<circle cx="50" cy="50" r="50" fill="#EBF2FF"/>
<path d="M26.6 70.0813V73.4015C26.6 74.091 26.8739 74.7524 27.3615 75.2399C27.8491 75.7275 28.5104 76.0015 29.2 76.0015H31.8C32.4896 76.0015 33.1509 75.7275 33.6385 75.2399C34.1261 74.7524 34.4 74.091 34.4 73.4015V70.8015H65.6V73.4015C65.6 74.091 65.8739 74.7524 66.3615 75.2399C66.8491 75.7275 67.5104 76.0015 68.2 76.0015H70.8C71.4896 76.0015 72.1509 75.7275 72.6385 75.2399C73.1261 74.7524 73.4 74.091 73.4 73.4015V70.0813C74.1888 69.6289 74.8445 68.9766 75.3009 68.1901C75.7574 67.4037 75.9985 66.5108 76 65.6015V57.8015C76 55.6409 74.6818 53.7923 72.8072 53.0045L69.2504 42.3341C68.7344 40.7805 67.742 39.4291 66.4141 38.4718C65.0862 37.5145 63.4904 37 61.8534 37.0015H38.1466C36.5096 37 34.9138 37.5145 33.5859 38.4718C32.258 39.4291 31.2656 40.7805 30.7496 42.3341L27.1928 53.0045C26.2472 53.4005 25.4397 54.0671 24.8716 54.9206C24.3036 55.774 24.0003 56.7763 24 57.8015V65.6015C24 67.5203 25.0504 69.1791 26.6 70.0813ZM33.1 65.6015C32.5877 65.6013 32.0804 65.5002 31.6071 65.304C31.1339 65.1078 30.7039 64.8203 30.3417 64.4579C29.6104 63.726 29.1997 62.7336 29.2 61.6989C29.2003 60.6642 29.6117 59.672 30.3436 58.9406C31.0755 58.2092 32.0679 57.7985 33.1026 57.7989C34.1373 57.7992 35.1295 58.2106 35.8609 58.9425C36.5922 59.6743 37.0029 60.6668 37.0026 61.7015C37.0023 62.7362 36.5909 63.7283 35.859 64.4597C35.1271 65.1911 34.1347 65.6018 33.1 65.6015ZM66.9 65.6015C65.8653 65.6011 64.8731 65.1898 64.1417 64.4579C63.4104 63.726 62.9997 62.7336 63 61.6989C63.0003 60.6642 63.4117 59.672 64.1436 58.9406C64.8755 58.2092 65.8679 57.7985 66.9026 57.7989C67.9373 57.7992 68.9295 58.2106 69.6609 58.9425C70.3922 59.6743 70.8029 60.6668 70.8026 61.7015C70.8023 62.7362 70.3909 63.7283 69.659 64.4597C68.9271 65.1911 67.9347 65.6018 66.9 65.6015ZM38.1466 42.2015H61.8508C62.3967 42.2013 62.9288 42.373 63.3717 42.6922C63.8145 43.0114 64.1457 43.4619 64.3182 43.9799L67.1938 52.6015H32.8062L35.6792 43.9799C36.0354 42.9165 37.0286 42.2015 38.1466 42.2015Z" fill="#073BA1"/>
<path d="M76 38.0101V32.5267L50.8216 24.1339C50.2652 23.9477 49.6619 23.9559 49.1108 24.1573L24 33.2885V38.8213L50.039 29.3521L76 38.0101Z" fill="#073BA1"/>
</g>
<defs>
<clipPath id="clip0_594_7937">
<rect width="100" height="100" fill="white"/>
</clipPath>
</defs>
</svg>
