<svg width="64" height="64" viewBox="0 0 64 64" fill="none" xmlns="http://www.w3.org/2000/svg">
<path d="M7.72816 52.7219L31.6266 28.8442L28.1414 25.3123L26.349 27.0783C26.1187 27.3088 25.8452 27.4918 25.544 27.6166C25.2428 27.7414 24.92 27.8057 24.594 27.8057C24.2679 27.8057 23.9451 27.7414 23.644 27.6166C23.3428 27.4918 23.0692 27.3088 22.8389 27.0783L21.0714 25.3123C20.8407 25.0822 20.6576 24.8089 20.5327 24.508C20.4077 24.2071 20.3434 23.8845 20.3434 23.5588C20.3434 23.233 20.4077 22.9105 20.5327 22.6096C20.6576 22.3087 20.8407 22.0354 21.0714 21.8053L35.1616 7.72738C35.3919 7.49681 35.6654 7.31387 35.9666 7.18906C36.2677 7.06425 36.5906 7 36.9166 7C37.2426 7 37.5655 7.06425 37.8666 7.18906C38.1678 7.31387 38.4413 7.49681 38.6716 7.72738L40.4391 9.49334C41.41 10.4634 41.41 12.0303 40.4391 13.0004L38.6716 14.7166L42.2066 18.2734C42.4369 18.0428 42.7105 17.8599 43.0116 17.735C43.3128 17.6102 43.6356 17.546 43.9617 17.546C44.2877 17.546 44.6105 17.6102 44.9117 17.735C45.2128 17.8599 45.4864 18.0428 45.7167 18.2734C46.6876 19.2434 46.6876 20.8352 45.7167 21.8053L49.2268 25.3123L50.9943 23.5464C51.9652 22.5763 53.5584 22.5763 54.5293 23.5464L56.2718 25.3123C57.2427 26.2823 57.2427 27.8742 56.2718 28.8442L42.2066 42.8972C41.2358 43.8673 39.6425 43.8673 38.6716 42.8972L36.9291 41.1562C36.6927 40.9267 36.5048 40.6521 36.3765 40.3488C36.2482 40.0455 36.182 39.7195 36.182 39.3902C36.182 39.0609 36.2482 38.7349 36.3765 38.4316C36.5048 38.1283 36.6927 37.8537 36.9291 37.6242L38.6716 35.8583L35.1616 32.3513L11.2382 56.2538C11.0079 56.4844 10.7344 56.6673 10.4332 56.7921C10.1321 56.917 9.80923 56.9812 9.4832 56.9812C9.15716 56.9812 8.83433 56.917 8.53317 56.7921C8.23202 56.6673 7.95846 56.4844 7.72816 56.2538C6.75728 55.2838 6.75728 53.6919 7.72816 52.7219ZM51.7909 49.5382C53.1114 49.5382 54.3778 50.0623 55.3115 50.9952C56.2452 51.9281 56.7697 53.1934 56.7697 54.5127V57H31.8755V54.5127C31.8755 53.1934 32.4001 51.9281 33.3338 50.9952C34.2675 50.0623 35.5339 49.5382 36.8544 49.5382H51.7909Z" fill="#073BA1"/>
</svg>
