<svg width="100" height="100" viewBox="0 0 100 100" fill="none" xmlns="http://www.w3.org/2000/svg">
<g clip-path="url(#clip0_497_9500)">
<circle cx="50" cy="50" r="50" fill="#EBF2FF"/>
<path d="M76.6667 30.3571H75V29.5179C75 28.1267 73.8854 27 72.5 27C71.1146 27 70 28.1267 70 29.5179V30.3571H24.4969C22.0135 30.3571 20 32.3851 20 34.8893V44.2956C20 46.7967 22.0135 48.8214 24.4969 48.8214C26.7115 48.8214 28.3104 50.9564 27.7021 53.1007L23.4635 69.7186C22.8552 71.8598 24.4542 74 26.6687 74H37.4813C38.9698 74 40.2771 73.0066 40.6865 71.565L43.5833 60.5714H53.4354C55.9521 60.5714 58.175 58.9548 58.9698 56.5554L61.5208 48.8214H65.2812C66.1652 48.8214 67.0125 48.468 67.6385 47.8381L70 45.4643H76.6667C78.5073 45.4643 80 43.9609 80 42.1071V33.7143C80 31.8605 78.5104 30.3571 76.6667 30.3571ZM54.2188 54.9692C54.1042 55.3049 53.7917 55.5357 53.4271 55.5357H44.9062L46.6667 48.8214H56.2521L54.2188 54.9692ZM70 40.4286H26.6667V37.0714H70V40.4286Z" fill="#073BA1"/>
</g>
<defs>
<clipPath id="clip0_497_9500">
<rect width="100" height="100" fill="white"/>
</clipPath>
</defs>
</svg>
