<svg width="40" height="40" viewBox="0 0 40 40" fill="none" xmlns="http://www.w3.org/2000/svg">
<g clip-path="url(#clip0_356_1432)">
<rect width="40" height="40" rx="8" fill="#EBF2FF"/>
<path d="M18.3134 21.6793C19.5394 22.9493 21.0227 23.9298 22.6593 24.5519L24.8733 22.7528C24.939 22.7066 25.0168 22.6819 25.0965 22.6819C25.1762 22.6819 25.254 22.7066 25.3197 22.7528L29.4306 25.4575C29.5867 25.5533 29.7188 25.6848 29.8166 25.8417C29.9143 25.9987 29.9749 26.1766 29.9937 26.3616C30.0125 26.5465 29.9889 26.7334 29.9249 26.9075C29.8608 27.0816 29.7579 27.238 29.6245 27.3645L27.6982 29.3075C27.4223 29.5859 27.0833 29.7902 26.7113 29.9021C26.3393 30.0141 25.9459 30.0303 25.5663 29.9492C21.7797 29.1506 18.2894 27.2803 15.4945 24.5519C12.7616 21.7964 10.8704 18.2903 10.0504 14.4589C9.96937 14.0773 9.98628 13.6808 10.0995 13.3078C10.2126 12.9348 10.4183 12.598 10.6964 12.33L12.6931 10.3629C12.8167 10.2333 12.9674 10.1338 13.1339 10.0721C13.3005 10.0103 13.4785 9.9878 13.6548 10.0063C13.831 10.0247 14.0009 10.0837 14.1517 10.1787C14.3025 10.2737 14.4302 10.4023 14.5255 10.5548L17.2622 14.6988C17.3094 14.7639 17.3349 14.8427 17.3349 14.9237C17.3349 15.0047 17.3094 15.0835 17.2622 15.1486L15.4592 17.3615C16.085 18.9992 17.06 20.4742 18.3134 21.6793Z" fill="#073BA1"/>
</g>
<defs>
<clipPath id="clip0_356_1432">
<rect width="40" height="40" fill="white"/>
</clipPath>
</defs>
</svg>
