<svg width="24" height="24" viewBox="0 0 24 24" fill="none" xmlns="http://www.w3.org/2000/svg">
<circle cx="12" cy="12" r="8.75" stroke="#073BA1" stroke-width="1.5"/>
<path d="M12.0004 7C11.2049 7.00099 10.4424 7.31217 9.87991 7.86528C9.31744 8.41839 9.00101 9.16828 9 9.9505H10.5254C10.5254 9.15025 11.1874 8.5 12.0004 8.5C12.8134 8.5 13.4754 9.15025 13.4754 9.9505C13.4754 10.399 13.1086 10.7245 12.548 11.17C12.3649 11.3111 12.189 11.461 12.021 11.6193C11.2598 12.367 11.2377 13.1613 11.2377 13.2498V13.75H12.7631L12.7623 13.2752C12.7631 13.2632 12.7875 12.9858 13.0986 12.6805C13.213 12.568 13.3572 12.4555 13.5067 12.337C14.1008 11.8637 15 11.149 15 9.9505C14.9994 9.16829 14.6832 8.41828 14.1208 7.8651C13.5584 7.31193 12.7958 7.00079 12.0004 7ZM11.2377 14.5H12.7631V16H11.2377V14.5Z" fill="#073BA1"/>
</svg>
