<svg width="100" height="100" viewBox="0 0 100 100" fill="none" xmlns="http://www.w3.org/2000/svg">
<g clip-path="url(#clip0_594_6346)">
<circle cx="50" cy="50" r="50" fill="#EBF2FF"/>
<path d="M78.9823 49.9512C78.9823 51.709 77.4718 53.0859 75.7599 53.0859H72.5376L72.608 68.7207C72.608 68.9941 72.5879 69.248 72.5577 69.5117V71.0938C72.5577 73.252 70.7552 75 68.5298 75H66.9186C66.8078 75 66.697 74.9121 66.5863 74.9902C66.4453 74.9121 66.3043 75 66.1633 75H60.4739C58.2484 75 56.4459 73.252 56.4459 71.0938V62.5C56.4459 60.7715 55.0059 59.375 53.2236 59.375H46.7788C44.9965 59.375 43.5565 60.7715 43.5565 62.5V71.0938C43.5565 73.252 41.754 75 39.5285 75H33.8995C33.7484 75 33.5974 74.9902 33.4464 74.9805C33.3255 74.9902 33.2047 75 33.0838 75H31.4727C29.2482 75 27.4447 73.252 27.4447 71.0938V60.1562C27.4447 60.0684 27.4477 59.9707 27.4538 59.8828V53.0859H24.2274C22.4118 53.0859 21 51.709 21 49.9512C21 49.0723 21.3025 48.291 22.008 47.6074L47.8261 25.7828C48.531 25.0979 49.3366 25 50.0415 25C50.7464 25 51.552 25.1957 52.1662 25.685L77.8746 47.6074C78.6802 48.291 79.093 49.0723 78.9823 49.9512Z" fill="#073BA1"/>
</g>
<defs>
<clipPath id="clip0_594_6346">
<rect width="100" height="100" fill="white"/>
</clipPath>
</defs>
</svg>
