<svg width="100" height="100" viewBox="0 0 100 100" fill="none" xmlns="http://www.w3.org/2000/svg">
<g clip-path="url(#clip0_594_7954)">
<circle cx="50" cy="50" r="50" fill="#EBF2FF"/>
<path d="M69.663 47.9531C69.663 49.6406 68.2129 50.9625 66.5695 50.9625H63.4761L63.5437 65.9719C63.5437 66.2344 63.5244 66.4781 63.4954 66.7312V68.25C63.4954 70.3219 61.765 72 59.6286 72H58.0818C57.9755 72 57.8692 71.9156 57.7628 71.9906C57.6275 71.9156 57.4921 72 57.3568 72H51.8949C49.7585 72 48.0281 70.3219 48.0281 68.25V60C48.0281 58.3406 46.6457 57 44.9346 57H38.7477C37.0366 57 35.6542 58.3406 35.6542 60V68.25C35.6542 70.3219 33.9238 72 31.7874 72H26.3835C26.2385 72 26.0935 71.9906 25.9485 71.9812C25.8325 71.9906 25.7165 72 25.6005 72H24.0538C21.9183 72 20.1869 70.3219 20.1869 68.25V57.75C20.1869 57.6656 20.1898 57.5719 20.1956 57.4875V50.9625H17.0983C15.3553 50.9625 14 49.6406 14 47.9531C14 47.1094 14.2904 46.3594 14.9677 45.7031L39.7531 24.7515C40.4298 24.0939 41.2031 24 41.8798 24C42.5565 24 43.3299 24.1879 43.9196 24.6576L68.5996 45.7031C69.373 46.3594 69.7693 47.1094 69.663 47.9531Z" fill="#073BA1"/>
<path d="M64.88 72V56L68.048 52.8L71.216 56V72H64.88ZM72.272 72V56L75.44 52.8L78.608 56V72H72.272ZM79.664 72V56L82.832 52.8L86 56V72H79.664Z" fill="#073BA1"/>
</g>
<defs>
<clipPath id="clip0_594_7954">
<rect width="100" height="100" fill="white"/>
</clipPath>
</defs>
</svg>
