<svg width="24" height="24" viewBox="0 0 24 24" fill="none" xmlns="http://www.w3.org/2000/svg">
<path d="M12 22C17.5228 22 22 17.5228 22 12C22 6.47715 17.5228 2 12 2C6.47715 2 2 6.47715 2 12C2 17.5228 6.47715 22 12 22Z" stroke="#073BA1" stroke-width="2"/>
<path d="M13.6449 9.632L10.2099 10.0625L10.0869 10.6325L10.7619 10.757C11.2029 10.862 11.2899 11.021 11.1939 11.4605L10.0869 16.6625C9.79593 18.008 10.2444 18.641 11.2989 18.641C12.1164 18.641 13.0659 18.263 13.4964 17.744L13.6284 17.12C13.3284 17.384 12.8904 17.489 12.5994 17.489C12.1869 17.489 12.0369 17.1995 12.1434 16.6895L13.6449 9.632ZM13.7499 6.5C13.7499 6.89782 13.5919 7.27936 13.3106 7.56066C13.0293 7.84196 12.6478 8 12.2499 8C11.8521 8 11.4706 7.84196 11.1893 7.56066C10.908 7.27936 10.7499 6.89782 10.7499 6.5C10.7499 6.10218 10.908 5.72064 11.1893 5.43934C11.4706 5.15804 11.8521 5 12.2499 5C12.6478 5 13.0293 5.15804 13.3106 5.43934C13.5919 5.72064 13.7499 6.10218 13.7499 6.5Z" fill="#073BA1"/>
</svg>
