<svg width="150" height="50" viewBox="0 0 150 50" fill="none" xmlns="http://www.w3.org/2000/svg">
<g clip-path="url(#clip0_1020_6322)">
<path d="M46.518 43.1567H9.0856V45.2862H46.518V43.1567Z" fill="#073BA1"/>
<path d="M50.8186 46.5157H4.78717V48.6454H50.8186V46.5157Z" fill="#073BA1"/>
<path d="M40.625 41.9492V24.6268V22.4972V10.6416V9.58775V8.51196H28.8124V8.97304V10.6416V22.4972V24.6268V41.9492H30.9622V24.6268H38.4752V41.9492H40.625ZM30.94 22.4972V10.6416H38.4531V22.4972H30.94Z" fill="#073BA1"/>
<path d="M43.9936 41.9491V7.28246V5.15285H41.8438H27.5712H25.4215V7.28246V41.9491H27.5712V7.28246H41.8438V41.9491H43.9936Z" fill="#073BA1"/>
<path d="M11.6141 39.8195V41.9491H22.0526H24.2023V5.15285H22.0526H11.6141V7.28246H22.0526V22.4972H11.6141V24.6268H22.0526V39.8195H11.6141Z" fill="#073BA1"/>
<path d="M55.2067 4.97725C54.8078 4.05515 54.1429 3.26477 53.3229 2.69394C52.5915 2.21094 51.7272 1.88162 50.7964 1.81575H4.76493V1.8377C4.21087 1.88162 3.67897 2.01335 3.19139 2.23289C2.23841 2.62808 1.44056 3.26477 0.8865 4.09905C0.332437 4.93334 0 5.9213 0 6.99709C0 7.69964 0.155137 8.40217 0.421087 9.01696C0.82001 9.93906 1.48488 10.7294 2.3049 11.2783C3.14707 11.8272 4.14438 12.1564 5.23035 12.1564C5.93954 12.1564 6.64874 12.0028 7.26929 11.7613C8.2001 11.3661 8.99795 10.7075 9.552 9.89515C10.1061 9.06087 10.4385 8.0729 10.4385 6.99709C10.4385 6.3604 10.3277 5.74567 10.1061 5.17484H7.66822C7.69039 5.21875 7.73473 5.26266 7.75683 5.30657C8.08932 5.78957 8.28878 6.3604 8.28878 6.99709C8.28878 7.4142 8.2001 7.80942 8.04498 8.18268C7.82334 8.73152 7.42441 9.19261 6.93686 9.52188C6.44928 9.85123 5.85089 10.0488 5.23035 10.0488C4.80926 10.0488 4.41033 9.96101 4.03357 9.80732C3.47951 9.58775 3.01409 9.19261 2.68166 8.70957C2.34922 8.22659 2.14976 7.63377 2.14976 7.01904C2.14976 6.60191 2.23841 6.20672 2.39355 5.83349C2.63734 5.28462 3.01409 4.82357 3.50167 4.49424C3.98925 4.16492 4.58763 3.96733 5.20818 3.96733H9.41905H46.1866H50.331C50.3531 3.96733 50.3753 3.96733 50.3974 3.96733C50.8185 3.96733 51.2175 4.05515 51.5942 4.20883C52.1483 4.45033 52.6137 4.82357 52.9461 5.30657C53.2786 5.78957 53.4781 6.38236 53.4781 6.99709C53.4781 7.4142 53.3894 7.80942 53.2343 8.18268C52.9905 8.73152 52.6137 9.19261 52.1261 9.52188C51.6386 9.85123 51.0402 10.0488 50.4196 10.0488C49.9985 10.0488 49.5996 9.96101 49.2228 9.80732C48.6688 9.58775 48.2033 9.19261 47.8709 8.70957C47.5385 8.22659 47.3391 7.63377 47.3391 7.01904C47.3391 6.60191 47.4277 6.20672 47.5829 5.83349C47.6715 5.61393 47.8044 5.39439 47.9596 5.1968H45.5439C45.3222 5.76762 45.2115 6.38236 45.2115 7.01904C45.2115 7.72159 45.3666 8.42413 45.6325 9.03891C46.0314 9.96101 46.6963 10.7514 47.5163 11.3002C48.3585 11.8491 49.3559 12.1784 50.4418 12.1784C51.151 12.1784 51.8602 12.0248 52.4808 11.7833C53.4116 11.388 54.2094 10.7294 54.7856 9.9171C55.3397 9.08283 55.6721 8.09486 55.6721 7.01904C55.6278 6.27258 55.4726 5.59199 55.2067 4.97725Z" fill="#073BA1"/>
<path d="M66.1695 45.5906C66.45 45.5906 66.7029 45.6562 66.9284 45.7874C67.1555 45.9169 67.3327 46.0967 67.46 46.3267C67.5891 46.5568 67.6536 46.8141 67.6536 47.0987C67.6536 47.5281 67.5143 47.8843 67.2356 48.1671C66.9568 48.45 66.6049 48.5914 66.1798 48.5914C65.8891 48.5914 65.6258 48.5267 65.39 48.3972C65.1544 48.2677 64.9694 48.0888 64.8351 47.8604C64.7027 47.632 64.6364 47.3764 64.6364 47.0935C64.6364 46.659 64.781 46.3003 65.07 46.0175C65.3591 45.7328 65.7256 45.5906 66.1695 45.5906ZM66.1386 45.9459C65.822 45.9459 65.5587 46.0558 65.3488 46.2756C65.1388 46.4937 65.0339 46.7681 65.0339 47.0987C65.0339 47.4259 65.1414 47.6968 65.3565 47.9115C65.5716 48.1262 65.8426 48.2336 66.1695 48.2336C66.4879 48.2336 66.7486 48.128 66.9516 47.9167C67.1564 47.7036 67.2587 47.4327 67.2587 47.1038C67.2587 46.7664 67.1538 46.4895 66.9439 46.273C66.734 46.0549 66.4655 45.9459 66.1386 45.9459Z" fill="#073BA1"/>
<path d="M70.6477 45.6596C70.6477 45.6596 70.6477 46.4971 70.6477 48.1722C70.6477 48.1722 70.8042 48.1722 71.1174 48.1722C71.1174 48.1722 71.1174 48.5088 71.1174 49.1819C71.1174 49.1819 71.028 49.1819 70.849 49.1819C70.849 49.1819 70.8017 48.9621 70.7071 48.5225C70.7071 48.5225 69.8751 48.5225 68.2112 48.5225C68.2112 48.5225 68.2112 47.5681 68.2112 45.6596C68.2112 45.6596 68.342 45.6596 68.6035 45.6596C68.6035 45.6596 68.6035 46.4971 68.6035 48.1722C68.6035 48.1722 69.155 48.1722 70.258 48.1722C70.258 48.1722 70.258 47.3347 70.258 45.6596C70.258 45.6596 70.3878 45.6596 70.6477 45.6596Z" fill="#073BA1"/>
<path d="M74.3078 47.2188C74.3078 47.2188 73.4364 47.2188 71.6931 47.2188C71.7085 47.5017 71.8255 47.742 72.0441 47.9396C72.2625 48.1356 72.5207 48.2336 72.8184 48.2336C73.0386 48.2336 73.2417 48.1739 73.4276 48.0546C73.6134 47.9337 73.7466 47.7752 73.8278 47.5792H74.2354C74.1286 47.8809 73.9464 48.1254 73.6881 48.3128C73.4298 48.4985 73.1436 48.5914 72.8287 48.5914C72.6187 48.5914 72.4191 48.5522 72.2299 48.4738C72.0406 48.3955 71.878 48.289 71.7421 48.1543C71.6061 48.0197 71.4986 47.8587 71.4194 47.6712C71.3403 47.4838 71.3007 47.2861 71.3007 47.0783C71.3007 46.8056 71.3669 46.5551 71.4995 46.3267C71.632 46.0984 71.8126 45.9186 72.0415 45.7874C72.2703 45.6562 72.5224 45.5906 72.7977 45.5906C73.0834 45.5906 73.3456 45.6604 73.5849 45.8001C73.8256 45.9399 74.0093 46.1299 74.1344 46.3701C74.1981 46.4912 74.2434 46.6156 74.269 46.7434C74.2946 46.8695 74.3078 47.028 74.3078 47.2188ZM71.7034 46.8686H73.9178C73.8527 46.5841 73.7195 46.3591 73.5176 46.1938C73.3186 46.0285 73.0782 45.9459 72.7977 45.9459C72.5241 45.9459 72.2867 46.0311 72.0853 46.2014C71.884 46.3701 71.7567 46.5925 71.7034 46.8686Z" fill="#073BA1"/>
<path d="M77.3663 48.5225C77.3663 48.5225 77.2354 48.5225 76.9742 48.5225C76.9742 48.5225 76.9742 48.0947 76.9742 47.2393C76.9742 47.2393 76.3968 47.2393 75.2422 47.2393C75.2422 47.2393 75.2422 47.667 75.2422 48.5225C75.2422 48.5225 75.1112 48.5225 74.85 48.5225C74.85 48.5225 74.85 47.5681 74.85 45.6596C74.85 45.6596 74.9803 45.6596 75.2422 45.6596C75.2422 45.6596 75.2422 46.0694 75.2422 46.8891C75.2422 46.8891 75.8195 46.8891 76.9742 46.8891C76.9742 46.8891 76.9742 46.4793 76.9742 45.6596C76.9742 45.6596 77.1044 45.6596 77.3663 45.6596C77.3663 45.6596 77.3663 46.6138 77.3663 48.5225Z" fill="#073BA1"/>
<path d="M79.4517 45.5906C79.7319 45.5906 79.9851 45.6562 80.2105 45.7874C80.4373 45.9169 80.6151 46.0967 80.7424 46.3267C80.8712 46.5568 80.9356 46.8141 80.9356 47.0987C80.9356 47.5281 80.7966 47.8843 80.5178 48.1671C80.239 48.45 79.8871 48.5914 79.4619 48.5914C79.1714 48.5914 78.908 48.5267 78.6724 48.3972C78.4361 48.2677 78.2517 48.0888 78.1171 47.8604C77.9846 47.632 77.9188 47.3764 77.9188 47.0935C77.9188 46.659 78.0629 46.3003 78.3519 46.0175C78.641 45.7328 79.0075 45.5906 79.4517 45.5906ZM79.421 45.9459C79.1041 45.9459 78.8407 46.0558 78.6307 46.2756C78.4207 46.4937 78.3161 46.7681 78.3161 47.0987C78.3161 47.4259 78.4236 47.6968 78.6388 47.9115C78.8539 48.1262 79.1246 48.2336 79.4517 48.2336C79.77 48.2336 80.0305 48.128 80.2339 47.9167C80.4388 47.7036 80.5412 47.4327 80.5412 47.1038C80.5412 46.7664 80.4358 46.4895 80.2258 46.273C80.0158 46.0549 79.7473 45.9459 79.421 45.9459Z" fill="#073BA1"/>
<path d="M83.5917 45.6596C83.5917 45.6596 83.5917 46.6138 83.5917 48.5225C83.5917 48.5225 83.4615 48.5225 83.2017 48.5225C83.2017 48.5225 83.2017 48.1424 83.2017 47.3824C82.9097 47.4165 82.6054 47.4335 82.2907 47.4335C82.1963 47.4335 82.0954 47.4191 81.9885 47.3901C81.8824 47.3594 81.7961 47.3202 81.731 47.2725C81.5085 47.1208 81.398 46.8729 81.398 46.5286V45.6596C81.398 45.6596 81.5283 45.6596 81.7902 45.6596C81.7902 45.6596 81.7902 45.9493 81.7902 46.5286C81.7902 46.6428 81.8012 46.734 81.8239 46.8022C81.848 46.8704 81.8919 46.9266 81.9556 46.9709C82.0193 47.0135 82.1005 47.0433 82.2007 47.0604C82.3017 47.0757 82.4363 47.0833 82.6032 47.0833C82.7561 47.0833 82.9558 47.0672 83.2017 47.0348V45.6596H83.5917Z" fill="#073BA1"/>
<path d="M86.7768 48.5225C86.7768 48.5225 86.6459 48.5225 86.3846 48.5225C86.3846 48.5225 86.3846 48.0947 86.3846 47.2393C86.3846 47.2393 85.8073 47.2393 84.6527 47.2393C84.6527 47.2393 84.6527 47.667 84.6527 48.5225C84.6527 48.5225 84.5217 48.5225 84.2605 48.5225C84.2605 48.5225 84.2605 47.5681 84.2605 45.6596C84.2605 45.6596 84.3907 45.6596 84.6527 45.6596C84.6527 45.6596 84.6527 46.0694 84.6527 46.8891C84.6527 46.8891 85.23 46.8891 86.3846 46.8891C86.3846 46.8891 86.3846 46.4793 86.3846 45.6596C86.3846 45.6596 86.5149 45.6596 86.7768 45.6596C86.7768 45.6596 86.7768 46.6138 86.7768 48.5225Z" fill="#073BA1"/>
<path d="M88.8622 45.5906C89.1425 45.5906 89.3956 45.6562 89.621 45.7874C89.8478 45.9169 90.0256 46.0967 90.1529 46.3267C90.2817 46.5568 90.3461 46.8141 90.3461 47.0987C90.3461 47.5281 90.2071 47.8843 89.9283 48.1671C89.6495 48.45 89.2976 48.5914 88.8725 48.5914C88.582 48.5914 88.3186 48.5267 88.0829 48.3972C87.8473 48.2677 87.6622 48.0888 87.5276 47.8604C87.3951 47.632 87.3293 47.3764 87.3293 47.0935C87.3293 46.659 87.4734 46.3003 87.7625 46.0175C88.0515 45.7328 88.4181 45.5906 88.8622 45.5906ZM88.8315 45.9459C88.5147 45.9459 88.2512 46.0558 88.0412 46.2756C87.8312 46.4937 87.7266 46.7681 87.7266 47.0987C87.7266 47.4259 87.8342 47.6968 88.0493 47.9115C88.2644 48.1262 88.5351 48.2336 88.8622 48.2336C89.1805 48.2336 89.441 48.128 89.6444 47.9167C89.8493 47.7036 89.9517 47.4327 89.9517 47.1038C89.9517 46.7664 89.8464 46.4895 89.6364 46.273C89.4264 46.0549 89.1578 45.9459 88.8315 45.9459Z" fill="#073BA1"/>
<path d="M90.7332 46.9734C90.7332 46.9734 91.211 46.9734 92.1658 46.9734C92.1658 46.9734 92.1658 47.0833 92.1658 47.3032C92.1658 47.3032 91.6888 47.3032 90.7332 47.3032C90.7332 47.3032 90.7332 47.1933 90.7332 46.9734Z" fill="#073BA1"/>
<path d="M92.9817 47.7122C93.09 47.8741 93.2276 48.0018 93.3944 48.0956C93.5634 48.1876 93.7478 48.2336 93.9498 48.2336C94.2454 48.2336 94.5015 48.1399 94.7188 47.9524C94.9354 47.765 95.0627 47.5307 95.1007 47.2495H93.379V46.8993C93.379 46.8993 93.9512 46.8993 95.0956 46.8993C95.051 46.6233 94.9222 46.3957 94.7107 46.2168C94.4993 46.0362 94.2505 45.9459 93.9651 45.9459C93.5385 45.9459 93.2107 46.1291 92.9817 46.4954H92.5324C92.6583 46.2125 92.8456 45.991 93.0951 45.8309C93.3461 45.6707 93.6344 45.5906 93.96 45.5906C94.2439 45.5906 94.5044 45.657 94.7422 45.7899C94.9793 45.9212 95.1659 46.1009 95.302 46.3293C95.4395 46.5576 95.5083 46.809 95.5083 47.0833C95.5083 47.3628 95.4395 47.6184 95.302 47.8501C95.1644 48.0802 94.9749 48.2617 94.7341 48.3946C94.4934 48.5259 94.2263 48.5914 93.9337 48.5914C93.6139 48.5914 93.3351 48.513 93.0981 48.3563C92.8617 48.1995 92.6737 47.9848 92.5324 47.7122H92.9817Z" fill="#073BA1"/>
<path d="M96.0607 45.6596C96.0607 45.6596 96.1917 45.6596 96.4529 45.6596C96.4529 45.6596 96.4529 46.0848 96.4529 46.9351C96.4529 46.9351 96.8934 46.5099 97.7744 45.6596C97.7744 45.6596 97.9434 45.6596 98.2807 45.6596C98.2807 45.6596 97.7993 46.1214 96.8378 47.045C96.8378 47.045 97.3185 47.5375 98.2807 48.5225C98.2807 48.5225 98.1102 48.5225 97.7693 48.5225C97.7693 48.5225 97.331 48.0725 96.4529 47.1728C96.4529 47.1728 96.4529 47.6227 96.4529 48.5225C96.4529 48.5225 96.3219 48.5225 96.0607 48.5225C96.0607 48.5225 96.0607 47.5681 96.0607 45.6596Z" fill="#073BA1"/>
<path d="M100.98 47.6789C100.98 47.6789 101.129 47.6789 101.424 47.6789C101.341 47.834 101.266 47.9558 101.197 48.0444C101.129 48.1314 101.046 48.2106 100.949 48.2822C100.684 48.4883 100.37 48.5914 100.008 48.5914C99.7149 48.5914 99.4478 48.5259 99.2071 48.3946C98.9663 48.2617 98.7768 48.0802 98.6393 47.8501C98.5017 47.6184 98.4329 47.3628 98.4329 47.0833C98.4329 46.809 98.501 46.5576 98.6363 46.3293C98.7746 46.1009 98.962 45.9212 99.199 45.7899C99.4368 45.657 99.6973 45.5906 99.9812 45.5906C100.308 45.5906 100.6 45.6749 100.856 45.8436C101.115 46.0123 101.302 46.2407 101.419 46.5286H100.98C100.869 46.3412 100.726 46.1972 100.554 46.0967C100.382 45.9962 100.19 45.9459 99.9761 45.9459C99.6541 45.9459 99.3827 46.0566 99.161 46.2782C98.9407 46.4997 98.8302 46.7715 98.8302 47.0935C98.8302 47.4122 98.9422 47.6823 99.1661 47.9038C99.3915 48.1237 99.6666 48.2336 99.9915 48.2336C100.199 48.2336 100.376 48.191 100.526 48.1058C100.677 48.0206 100.829 47.8783 100.98 47.6789Z" fill="#073BA1"/>
<path d="M104.457 48.5225C104.457 48.5225 104.326 48.5225 104.065 48.5225C104.065 48.5225 104.065 47.6849 104.065 46.0098C104.065 46.0098 103.496 46.0098 102.359 46.0098C102.359 46.0098 102.359 46.8473 102.359 48.5225C102.359 48.5225 102.228 48.5225 101.966 48.5225C101.966 48.5225 101.966 47.5681 101.966 45.6596C101.966 45.6596 102.797 45.6596 104.457 45.6596C104.457 45.6596 104.457 46.6138 104.457 48.5225Z" fill="#073BA1"/>
<path d="M108.016 47.2188C108.016 47.2188 107.145 47.2188 105.402 47.2188C105.417 47.5017 105.534 47.742 105.753 47.9396C105.971 48.1356 106.229 48.2336 106.527 48.2336C106.747 48.2336 106.95 48.1739 107.136 48.0546C107.322 47.9337 107.456 47.7752 107.536 47.5792H107.944C107.838 47.8809 107.655 48.1254 107.397 48.3128C107.139 48.4985 106.852 48.5914 106.537 48.5914C106.327 48.5914 106.128 48.5522 105.939 48.4738C105.749 48.3955 105.587 48.289 105.451 48.1543C105.315 48.0197 105.207 47.8587 105.128 47.6712C105.049 47.4838 105.01 47.2861 105.01 47.0783C105.01 46.8056 105.075 46.5551 105.208 46.3267C105.34 46.0984 105.521 45.9186 105.75 45.7874C105.979 45.6562 106.231 45.5906 106.507 45.5906C106.792 45.5906 107.055 45.6604 107.293 45.8001C107.535 45.9399 107.718 46.1299 107.843 46.3701C107.907 46.4912 107.952 46.6156 107.977 46.7434C108.004 46.8695 108.016 47.028 108.016 47.2188ZM105.412 46.8686H107.627C107.561 46.5841 107.428 46.3591 107.227 46.1938C107.027 46.0285 106.787 45.9459 106.507 45.9459C106.233 45.9459 105.995 46.0311 105.794 46.2014C105.593 46.3701 105.465 46.5925 105.412 46.8686Z" fill="#073BA1"/>
<path d="M108.558 45.6596C108.558 45.6596 108.689 45.6596 108.95 45.6596C108.95 45.6596 108.95 45.8232 108.95 46.1504C109.071 45.968 109.228 45.8291 109.42 45.7337C109.615 45.6383 109.837 45.5906 110.086 45.5906C110.37 45.5906 110.628 45.6562 110.86 45.7874C111.093 45.9186 111.275 46.0992 111.408 46.3293C111.542 46.5576 111.609 46.8124 111.609 47.0935C111.609 47.3713 111.542 47.6252 111.408 47.8553C111.274 48.0836 111.089 48.2634 110.853 48.3946C110.619 48.5259 110.36 48.5914 110.076 48.5914C109.837 48.5914 109.621 48.5438 109.428 48.4483C109.237 48.3512 109.078 48.2114 108.95 48.0291V49.527H108.558V45.6596ZM110.055 45.9459C109.737 45.9459 109.469 46.0566 109.25 46.2782C109.032 46.4997 108.922 46.7715 108.922 47.0935C108.922 47.4157 109.032 47.6866 109.253 47.9064C109.473 48.1246 109.746 48.2336 110.071 48.2336C110.396 48.2336 110.667 48.1262 110.884 47.9115C111.102 47.6951 111.211 47.4259 111.211 47.1038C111.211 46.7664 111.102 46.4895 110.884 46.273C110.667 46.0549 110.39 45.9459 110.055 45.9459Z" fill="#073BA1"/>
<path d="M113.677 46.0098C113.677 46.0098 113.426 46.0098 112.925 46.0098C112.925 46.0098 112.925 46.8473 112.925 48.5225C112.925 48.5225 112.795 48.5225 112.533 48.5225C112.533 48.5225 112.533 47.6849 112.533 46.0098C112.533 46.0098 112.28 46.0098 111.774 46.0098C111.774 46.0098 111.774 45.893 111.774 45.6596C111.774 45.6596 112.409 45.6596 113.677 45.6596C113.677 45.6596 113.677 45.7763 113.677 46.0098Z" fill="#073BA1"/>
<path d="M116.588 48.5225C116.588 48.5225 116.457 48.5225 116.196 48.5225C116.196 48.5225 116.196 48.0947 116.196 47.2393C116.196 47.2393 115.619 47.2393 114.464 47.2393C114.464 47.2393 114.464 47.667 114.464 48.5225C114.464 48.5225 114.333 48.5225 114.072 48.5225C114.072 48.5225 114.072 47.5681 114.072 45.6596C114.072 45.6596 114.202 45.6596 114.464 45.6596C114.464 45.6596 114.464 46.0694 114.464 46.8891C114.464 46.8891 115.041 46.8891 116.196 46.8891C116.196 46.8891 116.196 46.4793 116.196 45.6596C116.196 45.6596 116.326 45.6596 116.588 45.6596C116.588 45.6596 116.588 46.6138 116.588 48.5225Z" fill="#073BA1"/>
<path d="M120.196 45.6596C120.196 45.6596 120.196 46.6138 120.196 48.5225C120.196 48.5225 120.065 48.5225 119.804 48.5225C119.804 48.5225 119.804 48.3546 119.804 48.0188C119.651 48.2233 119.488 48.3699 119.316 48.4586C119.146 48.5472 118.938 48.5914 118.694 48.5914C118.4 48.5914 118.134 48.5275 117.896 48.3997C117.661 48.2702 117.476 48.0922 117.342 47.8655C117.207 47.6372 117.141 47.3815 117.141 47.0987C117.141 46.8158 117.206 46.5593 117.339 46.3293C117.471 46.0992 117.654 45.9186 117.886 45.7874C118.119 45.6562 118.378 45.5906 118.663 45.5906C118.916 45.5906 119.133 45.6366 119.314 45.7286C119.496 45.8189 119.659 45.9646 119.804 46.1657V45.6596H120.196ZM118.658 45.9459C118.349 45.9459 118.084 46.0566 117.866 46.2782C117.647 46.4997 117.538 46.7681 117.538 47.0833C117.538 47.4054 117.65 47.678 117.873 47.9013C118.097 48.1228 118.369 48.2336 118.689 48.2336C119.003 48.2336 119.268 48.1237 119.481 47.9038C119.696 47.6823 119.804 47.4088 119.804 47.0833C119.804 46.7578 119.695 46.4869 119.476 46.2705C119.257 46.0541 118.985 45.9459 118.658 45.9459Z" fill="#073BA1"/>
<path d="M122.472 47.0143C122.472 47.0143 122.472 46.6795 122.472 46.0098C122.472 46.0098 122.249 46.0098 121.801 46.0098C121.335 46.0098 121.102 46.1776 121.102 46.5133C121.102 46.8473 121.335 47.0143 121.801 47.0143C121.801 47.0143 122.025 47.0143 122.472 47.0143ZM121.833 47.3645C121.833 47.3645 121.561 47.7505 121.017 48.5225C121.017 48.5225 120.869 48.5225 120.573 48.5225C120.573 48.5225 120.852 48.1262 121.409 47.3338C121.19 47.2844 121.019 47.1864 120.893 47.0399C120.769 46.8916 120.708 46.7161 120.708 46.5133C120.708 46.2662 120.798 46.0626 120.978 45.9024C121.16 45.7405 121.401 45.6596 121.701 45.6596H122.862V48.5225C122.862 48.5225 122.732 48.5225 122.472 48.5225C122.472 48.5225 122.472 48.1364 122.472 47.3645C122.472 47.3645 122.26 47.3645 121.833 47.3645Z" fill="#073BA1"/>
<path d="M124.995 45.6596C124.995 45.6596 125.125 45.6596 125.387 45.6596C125.387 45.6596 125.387 46.0848 125.387 46.9351C125.387 46.9351 125.827 46.5099 126.708 45.6596C126.708 45.6596 126.877 45.6596 127.214 45.6596C127.214 45.6596 126.733 46.1214 125.771 47.045C125.771 47.045 126.252 47.5375 127.214 48.5225C127.214 48.5225 127.043 48.5225 126.703 48.5225C126.703 48.5225 126.264 48.0725 125.387 47.1728C125.387 47.1728 125.387 47.6227 125.387 48.5225C125.387 48.5225 125.256 48.5225 124.995 48.5225C124.995 48.5225 124.995 47.5681 124.995 45.6596Z" fill="#073BA1"/>
<path d="M128.9 45.5906C129.18 45.5906 129.433 45.6562 129.659 45.7874C129.885 45.9169 130.062 46.0967 130.19 46.3267C130.319 46.5568 130.384 46.8141 130.384 47.0987C130.384 47.5281 130.245 47.8843 129.966 48.1671C129.687 48.45 129.335 48.5914 128.91 48.5914C128.619 48.5914 128.356 48.5267 128.12 48.3972C127.884 48.2677 127.699 48.0888 127.565 47.8604C127.433 47.632 127.366 47.3764 127.366 47.0935C127.366 46.659 127.511 46.3003 127.8 46.0175C128.089 45.7328 128.456 45.5906 128.9 45.5906ZM128.868 45.9459C128.552 45.9459 128.289 46.0558 128.079 46.2756C127.869 46.4937 127.764 46.7681 127.764 47.0987C127.764 47.4259 127.872 47.6968 128.087 47.9115C128.302 48.1262 128.573 48.2336 128.9 48.2336C129.218 48.2336 129.479 48.128 129.682 47.9167C129.886 47.7036 129.989 47.4327 129.989 47.1038C129.989 46.7664 129.884 46.4895 129.674 46.273C129.464 46.0549 129.195 45.9459 128.868 45.9459Z" fill="#073BA1"/>
<path d="M130.941 48.5225C130.941 48.5225 130.941 47.5681 130.941 45.6596C130.941 45.6596 131.144 45.6596 131.55 45.6596C131.55 45.6596 131.887 46.4341 132.56 47.9831C132.56 47.9831 132.896 47.2086 133.569 45.6596C133.569 45.6596 133.771 45.6596 134.175 45.6596C134.175 45.6596 134.175 46.6138 134.175 48.5225C134.175 48.5225 134.045 48.5225 133.785 48.5225C133.785 48.5225 133.785 47.7096 133.785 46.0839C133.785 46.0839 133.433 46.8967 132.727 48.5225C132.727 48.5225 132.615 48.5225 132.389 48.5225C132.389 48.5225 132.037 47.7096 131.333 46.0839C131.333 46.0839 131.333 46.8967 131.333 48.5225C131.333 48.5225 131.202 48.5225 130.941 48.5225Z" fill="#073BA1"/>
<path d="M137.334 48.5225C137.334 48.5225 137.204 48.5225 136.942 48.5225C136.942 48.5225 136.942 47.6849 136.942 46.0098C136.942 46.0098 136.373 46.0098 135.236 46.0098C135.236 46.0098 135.236 46.8473 135.236 48.5225C135.236 48.5225 135.105 48.5225 134.843 48.5225C134.843 48.5225 134.843 47.5681 134.843 45.6596C134.843 45.6596 135.674 45.6596 137.334 45.6596C137.334 45.6596 137.334 46.6138 137.334 48.5225Z" fill="#073BA1"/>
<path d="M140.943 45.6596C140.943 45.6596 140.943 46.6138 140.943 48.5225C140.943 48.5225 140.812 48.5225 140.551 48.5225C140.551 48.5225 140.551 48.3546 140.551 48.0188C140.397 48.2233 140.235 48.3699 140.063 48.4586C139.892 48.5472 139.685 48.5914 139.441 48.5914C139.147 48.5914 138.88 48.5275 138.643 48.3997C138.408 48.2702 138.222 48.0922 138.088 47.8655C137.954 47.6372 137.887 47.3815 137.887 47.0987C137.887 46.8158 137.953 46.5593 138.086 46.3293C138.218 46.0992 138.4 45.9186 138.633 45.7874C138.865 45.6562 139.124 45.5906 139.409 45.5906C139.662 45.5906 139.879 45.6366 140.06 45.7286C140.243 45.8189 140.406 45.9646 140.551 46.1657V45.6596H140.943ZM139.404 45.9459C139.095 45.9459 138.83 46.0566 138.612 46.2782C138.394 46.4997 138.285 46.7681 138.285 47.0833C138.285 47.4054 138.396 47.678 138.62 47.9013C138.844 48.1228 139.115 48.2336 139.436 48.2336C139.75 48.2336 140.014 48.1237 140.228 47.9038C140.443 47.6823 140.551 47.4088 140.551 47.0833C140.551 46.7578 140.441 46.4869 140.223 46.2705C140.004 46.0541 139.731 45.9459 139.404 45.9459Z" fill="#073BA1"/>
<path d="M144.123 48.5225C144.123 48.5225 143.992 48.5225 143.73 48.5225C143.73 48.5225 143.73 48.0947 143.73 47.2393C143.73 47.2393 143.153 47.2393 141.999 47.2393C141.999 47.2393 141.999 47.667 141.999 48.5225C141.999 48.5225 141.868 48.5225 141.606 48.5225C141.606 48.5225 141.606 47.5681 141.606 45.6596C141.606 45.6596 141.737 45.6596 141.999 45.6596C141.999 45.6596 141.999 46.0694 141.999 46.8891C141.999 46.8891 142.575 46.8891 143.73 46.8891C143.73 46.8891 143.73 46.4793 143.73 45.6596C143.73 45.6596 143.861 45.6596 144.123 45.6596C144.123 45.6596 144.123 46.6138 144.123 48.5225Z" fill="#073BA1"/>
<path d="M146.939 45.6596C146.939 45.6596 147.069 45.6596 147.329 45.6596C147.329 45.6596 147.329 46.6138 147.329 48.5225C147.329 48.5225 147.198 48.5225 146.939 48.5225C146.939 48.5225 146.939 47.7513 146.939 46.2091C146.939 46.2091 146.352 46.9802 145.178 48.5225C145.178 48.5225 145.048 48.5225 144.786 48.5225C144.786 48.5225 144.786 47.5681 144.786 45.6596C144.786 45.6596 144.917 45.6596 145.178 45.6596C145.178 45.6596 145.178 46.4307 145.178 47.9729C145.178 47.9729 145.765 47.2017 146.939 45.6596Z" fill="#073BA1"/>
<path d="M149.61 47.0143C149.61 47.0143 149.61 46.6795 149.61 46.0098C149.61 46.0098 149.386 46.0098 148.939 46.0098C148.473 46.0098 148.24 46.1776 148.24 46.5133C148.24 46.8473 148.473 47.0143 148.939 47.0143C148.939 47.0143 149.163 47.0143 149.61 47.0143ZM148.97 47.3645C148.97 47.3645 148.698 47.7505 148.154 48.5225C148.154 48.5225 148.006 48.5225 147.711 48.5225C147.711 48.5225 147.989 48.1262 148.547 47.3338C148.328 47.2844 148.156 47.1864 148.03 47.0399C147.907 46.8916 147.844 46.7161 147.844 46.5133C147.844 46.2662 147.935 46.0626 148.116 45.9024C148.298 45.7405 148.539 45.6596 148.838 45.6596H150V48.5225C150 48.5225 149.87 48.5225 149.61 48.5225C149.61 48.5225 149.61 48.1364 149.61 47.3645C149.61 47.3645 149.396 47.3645 148.97 47.3645Z" fill="#073BA1"/>
<path d="M78.5371 1.3485C75.7141 1.3485 73.0015 1.95151 70.5659 2.99309C68.8499 3.76056 67.2446 4.80213 65.8054 5.95334L66.0822 6.99491C67.1893 6.00816 68.4071 5.18587 69.7356 4.52803C76.489 1.18404 85.2351 2.49971 91.1575 8.36543C95.7519 12.9702 97.6339 19.2196 96.5824 24.9209H85.8988C86.1761 25.2498 86.4527 25.5239 86.6736 25.8528H96.4163C95.6971 28.8679 94.2022 31.7733 91.8219 34.0757C85.1795 40.6541 74.3853 40.7089 67.0232 34.4046C66.5804 34.898 66.1929 35.3366 65.8054 35.83C69.2373 38.6806 73.6661 40.4348 78.5371 40.4348C89.4417 40.4348 98.2434 31.7185 98.2434 20.9191C98.2434 10.1196 89.4417 1.3485 78.5371 1.3485Z" fill="#073BA1"/>
<path d="M106.765 39.8866V2.88345H118.832V39.8866H120.714V1.95152C115.455 1.95152 110.197 1.95152 104.939 1.95152V39.8866H106.765Z" fill="#073BA1"/>
<path d="M138.769 1.3485C138.271 1.95151 137.828 2.55453 137.33 3.15754C134.009 15.3823 130.687 27.607 127.422 39.8866H128.363C129.636 35.1722 130.909 30.5125 132.182 25.8528H143.475C144.748 30.5125 146.021 35.1722 147.239 39.8866H149.176C145.744 27.0588 142.256 14.1762 138.769 1.3485ZM132.404 24.9209L137.828 4.96659L143.198 24.9209H132.404Z" fill="#073BA1"/>
<path fill-rule="evenodd" clip-rule="evenodd" d="M70.3243 2.45124L70.3288 2.44929C72.835 1.37749 75.6278 0.756181 78.5371 0.756181C89.7739 0.756181 98.8412 9.79464 98.8412 20.9191C98.8412 32.0456 89.7717 41.0271 78.5371 41.0271C73.5176 41.0271 68.9547 39.2188 65.4211 36.2838L64.9794 35.917L65.3333 35.4663C65.7338 34.9564 66.1325 34.5055 66.5762 34.0112L66.9681 33.5745L67.4144 33.9566C74.5603 40.0759 84.9973 39.9967 91.399 33.6569L91.4012 33.6544L91.4042 33.652C93.502 31.6229 94.89 29.1007 95.6444 26.4451H86.3539L86.1761 26.1814C86.0473 25.9898 85.912 25.8379 85.7451 25.6501C85.6537 25.5481 85.5534 25.4354 85.4393 25.3001L84.622 24.3285H96.0761C96.9008 18.9567 95.0642 13.1241 90.7339 8.78297C84.9856 3.09172 76.5168 1.83232 70.003 5.05778C68.7227 5.69174 67.5496 6.48389 66.4823 7.43514L65.7534 8.08485L65.1286 5.73338L65.4296 5.49254C66.8994 4.3169 68.5477 3.24578 70.3197 2.45325L70.3243 2.45124ZM91.1576 8.36536C95.752 12.9702 97.6339 19.2196 96.5825 24.9209H85.8988C85.9873 25.0257 86.0759 25.1251 86.1622 25.2223C86.2486 25.3201 86.3342 25.4159 86.4154 25.5132C86.5068 25.6227 86.5939 25.7342 86.6737 25.8528H96.4164C96.3688 26.0507 96.3183 26.2483 96.2649 26.4451C95.4966 29.2468 94.0456 31.9245 91.822 34.0757C85.1795 40.6541 74.3854 40.7089 67.0232 34.4046C66.5803 34.898 66.1929 35.3366 65.8054 35.8299C69.2374 38.6806 73.6654 40.4348 78.5371 40.4348C89.4417 40.4348 98.2427 31.7185 98.2427 20.9191C98.2427 10.1196 89.4417 1.34848 78.5371 1.34848C75.7142 1.34848 73.0014 1.95149 70.5659 2.99306C68.8499 3.76054 67.2446 4.8021 65.8054 5.95332L66.0822 6.99488C66.2476 6.84741 66.4156 6.70361 66.586 6.56348C67.5558 5.76601 68.6056 5.08752 69.7355 4.52801C76.489 1.18401 85.2344 2.49969 91.1576 8.36536ZM107.363 40.4789H104.34V1.35919H121.313V40.4789H118.234V3.47572H107.363V40.4789ZM106.765 39.8866H104.939V1.95149H120.714V39.8866H118.832V2.88342H106.765V39.8866ZM139.044 0.0806284L139.347 1.19449C142.834 14.0226 146.322 26.9061 149.754 39.7349L149.953 40.4789H146.774L146.659 40.0334C145.48 35.4709 144.25 30.9593 143.017 26.4451H132.64C131.407 30.959 130.174 35.4737 128.941 40.0396L128.822 40.4789H126.645L126.844 39.7357C130.109 27.4558 133.431 15.2309 136.752 3.0078L136.752 3.00363L136.786 2.88085L136.867 2.78246C137.11 2.48835 137.341 2.19333 137.576 1.89084L137.579 1.88832C137.812 1.58859 138.052 1.28146 138.307 0.973413L139.044 0.0806284ZM132.182 25.8528H143.475C144.748 30.5125 146.021 35.1721 147.239 39.8866H149.176C149.123 39.6892 149.07 39.4917 149.017 39.2943C145.7 26.8985 142.331 14.453 138.962 2.05685C138.898 1.82071 138.833 1.58459 138.769 1.34848C138.611 1.54054 138.457 1.73259 138.307 1.92465C138.22 2.0341 138.135 2.14355 138.05 2.253C137.814 2.55451 137.579 2.85601 137.33 3.15752C134.062 15.1857 130.794 27.2139 127.579 39.2943C127.527 39.4917 127.474 39.6891 127.422 39.8866H128.363C129.635 35.1741 130.908 30.5163 132.181 25.8586L132.182 25.8528ZM132.404 24.9209H143.197L137.828 4.96656L132.404 24.9209ZM137.825 7.2558L133.184 24.3285H142.42L137.825 7.2558Z" fill="#073BA1"/>
</g>
<defs>
<clipPath id="clip0_1020_6322">
<rect width="150" height="50" fill="white"/>
</clipPath>
</defs>
</svg>
