<svg width="24" height="24" viewBox="0 0 24 24" fill="none" xmlns="http://www.w3.org/2000/svg">
<path d="M6.69368 4H14.3152C14.7644 4 15.1952 4.16857 15.5128 4.46863C15.8305 4.76869 16.0089 5.17565 16.0089 5.6V7.2H14.3152V5.6H6.69368V18.4H14.3152V16.8H16.0089V18.4C16.0089 18.8243 15.8305 19.2313 15.5128 19.5314C15.1952 19.8314 14.7644 20 14.3152 20H6.69368C6.24449 20 5.81369 19.8314 5.49607 19.5314C5.17844 19.2313 5 18.8243 5 18.4V5.6C5 5.17565 5.17844 4.76869 5.49607 4.46863C5.81369 4.16857 6.24449 4 6.69368 4Z" fill="#073BA1"/>
<path d="M15.2015 13.5924L16.037 14.3916L19 11.5575L16.037 8.72345L15.2015 9.52266L16.7304 10.9907H11V12.1243H16.7304L15.2015 13.5924Z" fill="#073BA1"/>
</svg>
