<svg width="64" height="64" viewBox="0 0 64 64" fill="none" xmlns="http://www.w3.org/2000/svg">
<path d="M47.8667 24.2045C46.0517 24.1608 44.265 23.7455 42.6169 22.9841C40.9687 22.2227 39.4942 21.1315 38.2844 19.7778C38.9338 22.5406 38.5566 25.4453 37.2232 27.9506C35.8897 30.4559 33.6909 32.391 31.0364 33.3953C28.382 34.3996 25.453 34.4046 22.7951 33.4094C20.1372 32.4142 17.9318 30.4867 16.5897 27.986C15.2477 25.4853 14.8605 22.5819 15.5004 19.8169C16.1403 17.0519 17.7636 14.6138 20.0679 12.957C22.3721 11.3001 25.2001 10.5375 28.025 10.8111C30.8499 11.0848 33.4789 12.3761 35.4222 14.4445C34.6369 11.5956 34.831 8.56551 35.9733 5.84006C32.7903 4.30282 29.2693 3.59843 25.7399 3.79286C22.2105 3.98728 18.7881 5.07416 15.7933 6.95173C12.7984 8.8293 10.329 11.4362 8.61615 14.5282C6.90335 17.6203 6.00321 21.0964 6 24.6312C6 32.9334 10.6578 39.8845 14.0711 44.9512L14.6933 45.8756C18.0894 50.7976 21.7326 55.5444 25.6089 60.0978L26.96 61.6801L28.3111 60.0978C32.1869 55.544 35.8301 50.7972 39.2267 45.8756L39.8489 44.9334C43.2444 39.8667 47.9022 32.9334 47.9022 24.6312C47.8844 24.4889 47.8667 24.3467 47.8667 24.2045Z" fill="#073BA1"/>
<path d="M26.9421 28.9688C30.6044 28.9688 33.5733 25.9999 33.5733 22.3377C33.5733 18.6754 30.6044 15.7065 26.9421 15.7065C23.2799 15.7065 20.311 18.6754 20.311 22.3377C20.311 25.9999 23.2799 28.9688 26.9421 28.9688Z" fill="#073BA1"/>
<path d="M48.2756 19.7778C53.1848 19.7778 57.1645 15.7981 57.1645 10.8889C57.1645 5.97969 53.1848 2 48.2756 2C43.3664 2 39.3867 5.97969 39.3867 10.8889C39.3867 15.7981 43.3664 19.7778 48.2756 19.7778Z" fill="#073BA1"/>
</svg>
