<svg width="70" height="40" viewBox="0 0 70 40" fill="none" xmlns="http://www.w3.org/2000/svg">
<g filter="url(#filter0_d_90_109)">
<g clip-path="url(#clip0_90_109)">
<rect x="5" y="4" width="60" height="30" rx="4" fill="white"/>
<rect x="5" y="4" width="60" height="30" rx="5" fill="white"/>
<path d="M26.0749 29.9517V28.4917C26.0749 27.9332 25.7386 27.5674 25.1613 27.5674C24.8727 27.5674 24.5588 27.6638 24.3431 27.9814C24.1749 27.7149 23.9339 27.5674 23.5724 27.5674C23.3315 27.5674 23.0905 27.6411 22.8999 27.9076V27.6156H22.3955V29.9517H22.8999V28.6618C22.8999 28.2478 23.1157 28.0522 23.452 28.0522C23.7882 28.0522 23.9564 28.2705 23.9564 28.6618V29.9517H24.4608V28.6618C24.4608 28.2478 24.7018 28.0522 25.0128 28.0522C25.3491 28.0522 25.5172 28.2705 25.5172 28.6618V29.9517H26.0749ZM33.5568 27.6156H32.7386V26.9097H32.2342V27.6156H31.7774V28.0777H32.2342V29.1494C32.2342 29.6852 32.45 29.9999 33.0272 29.9999C33.243 29.9999 33.484 29.9262 33.6521 29.8298L33.5064 29.3904C33.3607 29.4868 33.1925 29.5123 33.072 29.5123C32.8311 29.5123 32.7358 29.3649 32.7358 29.1239V28.0777H33.554V27.6156H33.5568ZM37.8387 27.5646C37.55 27.5646 37.3567 27.712 37.2362 27.9048V27.6128H36.7318V29.9489H37.2362V28.6334C37.2362 28.245 37.4043 28.0239 37.7182 28.0239C37.8134 28.0239 37.9339 28.0494 38.032 28.0721L38.1777 27.5844C38.0769 27.5646 37.9339 27.5646 37.8387 27.5646ZM31.3683 27.8084C31.1273 27.6383 30.791 27.5646 30.4295 27.5646C29.8523 27.5646 29.4684 27.8566 29.4684 28.3187C29.4684 28.7071 29.757 28.9283 30.2614 28.9991L30.5024 29.0247C30.7658 29.0728 30.9115 29.1466 30.9115 29.2685C30.9115 29.4386 30.7182 29.5605 30.3819 29.5605C30.0456 29.5605 29.7794 29.4386 29.6113 29.3167L29.3703 29.7051C29.6337 29.9007 29.9952 29.9971 30.3567 29.9971C31.0292 29.9971 31.4159 29.6796 31.4159 29.243C31.4159 28.829 31.1021 28.6107 30.6229 28.537L30.3819 28.5115C30.1661 28.486 29.998 28.4378 29.998 28.2932C29.998 28.1231 30.1661 28.0267 30.4323 28.0267C30.721 28.0267 31.0096 28.1486 31.1553 28.2223L31.3683 27.8084ZM44.7882 27.5646C44.4996 27.5646 44.3062 27.712 44.1857 27.9048V27.6128H43.6813V29.9489H44.1857V28.6334C44.1857 28.245 44.3539 28.0239 44.6677 28.0239C44.763 28.0239 44.8835 28.0494 44.9816 28.0721L45.1273 27.5901C45.0292 27.5646 44.8863 27.5646 44.7882 27.5646ZM38.3431 28.7837C38.3431 29.4896 38.8251 29.9999 39.5704 29.9999C39.9067 29.9999 40.1477 29.9262 40.3887 29.7334L40.1477 29.3195C39.9544 29.4669 39.7638 29.5378 39.5452 29.5378C39.1361 29.5378 38.8475 29.2458 38.8475 28.7837C38.8475 28.3442 39.1361 28.0522 39.5452 28.0296C39.761 28.0296 39.9544 28.1033 40.1477 28.2479L40.3887 27.8339C40.1477 27.6383 39.9067 27.5674 39.5704 27.5674C38.8251 27.5646 38.3431 28.0777 38.3431 28.7837ZM43.0088 28.7837V27.6156H42.5044V27.9076C42.3363 27.6893 42.0953 27.5674 41.7814 27.5674C41.1313 27.5674 40.6269 28.0777 40.6269 28.7837C40.6269 29.4896 41.1313 29.9999 41.7814 29.9999C42.1177 29.9999 42.3587 29.878 42.5044 29.6597V29.9517H43.0088V28.7837ZM41.1565 28.7837C41.1565 28.3698 41.4199 28.0296 41.8543 28.0296C42.2634 28.0296 42.552 28.3471 42.552 28.7837C42.552 29.1976 42.2634 29.5378 41.8543 29.5378C41.4227 29.5123 41.1565 29.1948 41.1565 28.7837ZM35.1205 27.5646C34.4479 27.5646 33.966 28.0522 33.966 28.7808C33.966 29.5123 34.4479 29.9971 35.1457 29.9971C35.482 29.9971 35.8182 29.9007 36.0845 29.6796L35.8435 29.3138C35.6501 29.4613 35.4091 29.5576 35.1709 29.5576C34.8571 29.5576 34.546 29.4102 34.4732 28.9991H36.1797C36.1797 28.9254 36.1797 28.8772 36.1797 28.8035C36.2022 28.0522 35.7678 27.5646 35.1205 27.5646ZM35.1205 28.004C35.4343 28.004 35.6501 28.1997 35.6977 28.5625H34.4956C34.5432 28.2478 34.759 28.004 35.1205 28.004ZM47.6521 28.7837V26.6914H47.1477V27.9076C46.9796 27.6893 46.7386 27.5674 46.4247 27.5674C45.7746 27.5674 45.2702 28.0777 45.2702 28.7837C45.2702 29.4896 45.7746 29.9999 46.4247 29.9999C46.761 29.9999 47.002 29.878 47.1477 29.6597V29.9517H47.6521V28.7837ZM45.7998 28.7837C45.7998 28.3698 46.0632 28.0296 46.4976 28.0296C46.9067 28.0296 47.1953 28.3471 47.1953 28.7837C47.1953 29.1976 46.9067 29.5378 46.4976 29.5378C46.0632 29.5123 45.7998 29.1948 45.7998 28.7837ZM28.9135 28.7837V27.6156H28.4091V27.9076C28.241 27.6893 28 27.5674 27.6861 27.5674C27.036 27.5674 26.5316 28.0777 26.5316 28.7837C26.5316 29.4896 27.036 29.9999 27.6861 29.9999C28.0224 29.9999 28.2634 29.878 28.4091 29.6597V29.9517H28.9135V28.7837ZM27.0388 28.7837C27.0388 28.3698 27.3022 28.0296 27.7366 28.0296C28.1457 28.0296 28.4343 28.3471 28.4343 28.7837C28.4343 29.1976 28.1457 29.5378 27.7366 29.5378C27.3022 29.5123 27.0388 29.1948 27.0388 28.7837Z" fill="black"/>
<path d="M38.7775 9.87402H31.2002V23.6467H38.7775V9.87402Z" fill="#FF5A00"/>
<path d="M31.7046 16.7603C31.7046 13.9621 33.0048 11.4786 35 9.87397C33.5316 8.70593 31.6793 8 29.6589 8C24.8727 8 21 11.918 21 16.7603C21 21.6026 24.8727 25.5206 29.6589 25.5206C31.6793 25.5206 33.5316 24.8147 35 23.6467C33.002 22.0647 31.7046 19.5585 31.7046 16.7603Z" fill="#EB001B"/>
<path d="M49 16.7603C49 21.6026 45.1273 25.5206 40.3411 25.5206C38.3207 25.5206 36.4684 24.8147 35 23.6467C37.0204 22.0392 38.2954 19.5585 38.2954 16.7603C38.2954 13.9621 36.9952 11.4786 35 9.87397C36.4656 8.70593 38.3179 8 40.3383 8C45.1273 8 49 11.9436 49 16.7603Z" fill="#F79E1B"/>
</g>
<rect x="4.5" y="3.5" width="61" height="31" rx="4.5" stroke="#E8EEF3"/>
</g>
<defs>
<filter id="filter0_d_90_109" x="0" y="0" width="70" height="40" filterUnits="userSpaceOnUse" color-interpolation-filters="sRGB">
<feFlood flood-opacity="0" result="BackgroundImageFix"/>
<feColorMatrix in="SourceAlpha" type="matrix" values="0 0 0 0 0 0 0 0 0 0 0 0 0 0 0 0 0 0 127 0" result="hardAlpha"/>
<feOffset dy="1"/>
<feGaussianBlur stdDeviation="2"/>
<feComposite in2="hardAlpha" operator="out"/>
<feColorMatrix type="matrix" values="0 0 0 0 0.027451 0 0 0 0 0.231373 0 0 0 0 0.631373 0 0 0 0.1 0"/>
<feBlend mode="normal" in2="BackgroundImageFix" result="effect1_dropShadow_90_109"/>
<feBlend mode="normal" in="SourceGraphic" in2="effect1_dropShadow_90_109" result="shape"/>
</filter>
<clipPath id="clip0_90_109">
<rect x="5" y="4" width="60" height="30" rx="4" fill="white"/>
</clipPath>
</defs>
</svg>
