<svg width="40" height="40" viewBox="0 0 40 40" fill="none" xmlns="http://www.w3.org/2000/svg">
<g clip-path="url(#clip0_631_8088)">
<path d="M16.4291 3.64339C18.3895 1.64316 21.6105 1.64316 23.5709 3.64339L29.8995 10.1005L36.3566 16.4291C38.3568 18.3895 38.3568 21.6105 36.3566 23.5709L29.8995 29.8995L23.5709 36.3566C21.6105 38.3568 18.3895 38.3568 16.4291 36.3566L10.1005 29.8995L3.64339 23.5709C1.64316 21.6105 1.64316 18.3895 3.64339 16.4291L10.1005 10.1005L16.4291 3.64339Z" fill="#073BA1"/>
<path d="M18.986 26C18.854 26 18.746 25.958 18.662 25.874C18.59 25.79 18.554 25.688 18.554 25.568V16.244L15.818 18.35C15.71 18.422 15.602 18.452 15.494 18.44C15.386 18.416 15.29 18.35 15.206 18.242L14.45 17.27C14.378 17.162 14.348 17.048 14.36 16.928C14.384 16.808 14.45 16.712 14.558 16.64L18.59 13.526C18.662 13.466 18.734 13.43 18.806 13.418C18.878 13.406 18.956 13.4 19.04 13.4H20.624C20.744 13.4 20.846 13.442 20.93 13.526C21.014 13.61 21.056 13.712 21.056 13.832V25.568C21.056 25.688 21.014 25.79 20.93 25.874C20.846 25.958 20.744 26 20.624 26H18.986Z" fill="white"/>
</g>
<defs>
<clipPath id="clip0_631_8088">
<rect width="40" height="40" fill="white"/>
</clipPath>
</defs>
</svg>
