<svg width="40" height="40" viewBox="0 0 40 40" fill="none" xmlns="http://www.w3.org/2000/svg">
<g clip-path="url(#clip0_2497_3385)">
<path d="M16.4291 3.64339C18.3895 1.64316 21.6105 1.64316 23.5709 3.64339L29.8995 10.1005L36.3566 16.4291C38.3568 18.3895 38.3568 21.6105 36.3566 23.5709L29.8995 29.8995L23.5709 36.3566C21.6105 38.3568 18.3895 38.3568 16.4291 36.3566L10.1005 29.8995L3.64339 23.5709C1.64316 21.6105 1.64316 18.3895 3.64339 16.4291L10.1005 10.1005L16.4291 3.64339Z" fill="#073BA1"/>
<path d="M15.242 26C15.122 26 15.02 25.958 14.936 25.874C14.852 25.79 14.81 25.688 14.81 25.568V24.65C14.81 24.542 14.834 24.416 14.882 24.272C14.942 24.116 15.068 23.96 15.26 23.804L18.104 20.978C18.896 20.354 19.532 19.826 20.012 19.394C20.504 18.95 20.858 18.548 21.074 18.188C21.302 17.816 21.416 17.45 21.416 17.09C21.416 16.55 21.266 16.112 20.966 15.776C20.678 15.44 20.216 15.272 19.58 15.272C19.16 15.272 18.806 15.362 18.518 15.542C18.23 15.71 18.002 15.938 17.834 16.226C17.678 16.514 17.57 16.832 17.51 17.18C17.486 17.336 17.42 17.444 17.312 17.504C17.204 17.564 17.096 17.594 16.988 17.594H15.386C15.278 17.594 15.188 17.558 15.116 17.486C15.044 17.414 15.008 17.33 15.008 17.234C15.02 16.718 15.128 16.22 15.332 15.74C15.536 15.248 15.83 14.816 16.214 14.444C16.61 14.06 17.09 13.754 17.654 13.526C18.218 13.298 18.854 13.184 19.562 13.184C20.558 13.184 21.38 13.352 22.028 13.688C22.688 14.024 23.18 14.48 23.504 15.056C23.84 15.632 24.008 16.28 24.008 17C24.008 17.564 23.9 18.086 23.684 18.566C23.468 19.034 23.156 19.49 22.748 19.934C22.34 20.366 21.848 20.81 21.272 21.266L18.716 23.858H23.846C23.978 23.858 24.08 23.9 24.152 23.984C24.236 24.056 24.278 24.158 24.278 24.29V25.568C24.278 25.688 24.236 25.79 24.152 25.874C24.08 25.958 23.978 26 23.846 26H15.242Z" fill="white"/>
</g>
<defs>
<clipPath id="clip0_2497_3385">
<rect width="40" height="40" fill="white"/>
</clipPath>
</defs>
</svg>
