<svg width="40" height="40" viewBox="0 0 40 40" fill="none" xmlns="http://www.w3.org/2000/svg">
<g clip-path="url(#clip0_2497_4277)">
<path d="M16.4291 3.64339C18.3895 1.64316 21.6105 1.64316 23.5709 3.64339L29.8995 10.1005L36.3566 16.4291C38.3568 18.3895 38.3568 21.6105 36.3566 23.5709L29.8995 29.8995L23.5709 36.3566C21.6105 38.3568 18.3895 38.3568 16.4291 36.3566L10.1005 29.8995L3.64339 23.5709C1.64316 21.6105 1.64316 18.3895 3.64339 16.4291L10.1005 10.1005L16.4291 3.64339Z" fill="#073BA1"/>
<path d="M21.11 26C20.99 26 20.888 25.958 20.804 25.874C20.72 25.79 20.678 25.688 20.678 25.568V23.264H14.972C14.84 23.264 14.732 23.222 14.648 23.138C14.576 23.054 14.54 22.952 14.54 22.832V21.608C14.54 21.536 14.552 21.452 14.576 21.356C14.612 21.248 14.666 21.152 14.738 21.068L20.048 13.706C20.204 13.502 20.426 13.4 20.714 13.4H22.676C22.796 13.4 22.898 13.442 22.982 13.526C23.066 13.61 23.108 13.712 23.108 13.832V21.14H24.71C24.854 21.14 24.962 21.182 25.034 21.266C25.118 21.338 25.16 21.44 25.16 21.572V22.832C25.16 22.952 25.118 23.054 25.034 23.138C24.95 23.222 24.848 23.264 24.728 23.264H23.108V25.568C23.108 25.688 23.066 25.79 22.982 25.874C22.898 25.958 22.796 26 22.676 26H21.11ZM17.042 21.212H20.732V16.01L17.042 21.212Z" fill="white"/>
</g>
<defs>
<clipPath id="clip0_2497_4277">
<rect width="40" height="40" fill="white"/>
</clipPath>
</defs>
</svg>
