<svg width="40" height="40" viewBox="0 0 40 40" fill="none" xmlns="http://www.w3.org/2000/svg">
<g clip-path="url(#clip0_2497_3393)">
<path d="M16.4291 3.64339C18.3895 1.64316 21.6105 1.64316 23.5709 3.64339L29.8995 10.1005L36.3566 16.4291C38.3568 18.3895 38.3568 21.6105 36.3566 23.5709L29.8995 29.8995L23.5709 36.3566C21.6105 38.3568 18.3895 38.3568 16.4291 36.3566L10.1005 29.8995L3.64339 23.5709C1.64316 21.6105 1.64316 18.3895 3.64339 16.4291L10.1005 10.1005L16.4291 3.64339Z" fill="#073BA1"/>
<path d="M19.598 26.18C18.758 26.18 18.032 26.078 17.42 25.874C16.808 25.67 16.298 25.406 15.89 25.082C15.494 24.746 15.194 24.386 14.99 24.002C14.786 23.606 14.678 23.216 14.666 22.832C14.666 22.724 14.702 22.64 14.774 22.58C14.858 22.508 14.954 22.472 15.062 22.472H16.682C16.802 22.472 16.904 22.496 16.988 22.544C17.072 22.592 17.144 22.688 17.204 22.832C17.312 23.156 17.486 23.414 17.726 23.606C17.978 23.798 18.266 23.936 18.59 24.02C18.914 24.092 19.256 24.128 19.616 24.128C20.336 24.128 20.906 23.96 21.326 23.624C21.758 23.276 21.974 22.784 21.974 22.148C21.974 21.512 21.776 21.056 21.38 20.78C20.984 20.492 20.432 20.348 19.724 20.348H17.87C17.738 20.348 17.63 20.312 17.546 20.24C17.462 20.156 17.42 20.048 17.42 19.916V19.16C17.42 19.04 17.444 18.938 17.492 18.854C17.552 18.758 17.612 18.68 17.672 18.62L20.894 15.47H15.746C15.614 15.47 15.506 15.428 15.422 15.344C15.35 15.26 15.314 15.158 15.314 15.038V13.85C15.314 13.718 15.35 13.61 15.422 13.526C15.506 13.442 15.614 13.4 15.746 13.4H23.468C23.6 13.4 23.708 13.442 23.792 13.526C23.876 13.61 23.918 13.718 23.918 13.85V14.93C23.918 15.038 23.894 15.134 23.846 15.218C23.798 15.302 23.744 15.374 23.684 15.434L20.57 18.638L20.786 18.656C21.518 18.716 22.166 18.884 22.73 19.16C23.306 19.424 23.75 19.814 24.062 20.33C24.386 20.846 24.548 21.494 24.548 22.274C24.548 23.09 24.332 23.792 23.9 24.38C23.48 24.956 22.898 25.4 22.154 25.712C21.41 26.024 20.558 26.18 19.598 26.18Z" fill="white"/>
</g>
<defs>
<clipPath id="clip0_2497_3393">
<rect width="40" height="40" fill="white"/>
</clipPath>
</defs>
</svg>
