<svg width="40" height="40" viewBox="0 0 40 40" fill="none" xmlns="http://www.w3.org/2000/svg">
<g clip-path="url(#clip0_2497_4284)">
<path d="M16.4291 3.64339C18.3895 1.64316 21.6105 1.64316 23.5709 3.64339L29.8995 10.1005L36.3566 16.4291C38.3568 18.3895 38.3568 21.6105 36.3566 23.5709L29.8995 29.8995L23.5709 36.3566C21.6105 38.3568 18.3895 38.3568 16.4291 36.3566L10.1005 29.8995L3.64339 23.5709C1.64316 21.6105 1.64316 18.3895 3.64339 16.4291L10.1005 10.1005L16.4291 3.64339Z" fill="#073BA1"/>
<path d="M19.508 26.198C18.476 26.198 17.606 26.03 16.898 25.694C16.19 25.346 15.65 24.896 15.278 24.344C14.918 23.792 14.726 23.204 14.702 22.58C14.69 22.472 14.72 22.388 14.792 22.328C14.876 22.256 14.972 22.22 15.08 22.22H16.754C16.886 22.22 16.994 22.25 17.078 22.31C17.174 22.358 17.246 22.448 17.294 22.58C17.414 22.94 17.582 23.234 17.798 23.462C18.026 23.69 18.284 23.858 18.572 23.966C18.872 24.074 19.184 24.128 19.508 24.128C19.94 24.128 20.33 24.044 20.678 23.876C21.038 23.696 21.326 23.432 21.542 23.084C21.758 22.736 21.866 22.31 21.866 21.806C21.866 21.362 21.764 20.978 21.56 20.654C21.356 20.33 21.074 20.078 20.714 19.898C20.366 19.706 19.964 19.61 19.508 19.61C19.172 19.61 18.896 19.652 18.68 19.736C18.464 19.82 18.278 19.916 18.122 20.024C17.978 20.132 17.846 20.228 17.726 20.312C17.618 20.396 17.492 20.438 17.348 20.438H15.692C15.584 20.438 15.488 20.402 15.404 20.33C15.332 20.246 15.296 20.15 15.296 20.042L15.926 13.886C15.938 13.73 15.992 13.61 16.088 13.526C16.184 13.442 16.298 13.4 16.43 13.4H23.198C23.318 13.4 23.42 13.442 23.504 13.526C23.588 13.61 23.63 13.712 23.63 13.832V15.038C23.63 15.158 23.588 15.26 23.504 15.344C23.42 15.428 23.318 15.47 23.198 15.47H17.996L17.708 18.404C17.924 18.26 18.212 18.122 18.572 17.99C18.932 17.858 19.43 17.792 20.066 17.792C20.642 17.792 21.188 17.888 21.704 18.08C22.232 18.26 22.7 18.53 23.108 18.89C23.516 19.238 23.834 19.664 24.062 20.168C24.302 20.66 24.422 21.224 24.422 21.86C24.422 22.736 24.218 23.498 23.81 24.146C23.402 24.794 22.832 25.298 22.1 25.658C21.368 26.018 20.504 26.198 19.508 26.198Z" fill="white"/>
</g>
<defs>
<clipPath id="clip0_2497_4284">
<rect width="40" height="40" fill="white"/>
</clipPath>
</defs>
</svg>
