<svg width="100" height="100" viewBox="0 0 100 100" fill="none" xmlns="http://www.w3.org/2000/svg">
<g clip-path="url(#clip0_349_2433)">
<circle cx="50" cy="50" r="50" fill="#EBF2FF"/>
<circle cx="12.5" cy="15.5" r="2.5" fill="#EC3D5A"/>
<path d="M70.75 63.8V58.9C70.75 56.1938 68.3995 54 65.5 54C62.6005 54 60.25 56.1938 60.25 58.9V63.8M59.8 75H71.2C72.8802 75 73.7202 75 74.362 74.6948C74.9265 74.4264 75.3854 73.998 75.673 73.4712C76 72.8722 76 72.0881 76 70.52V68.28C76 66.7119 76 65.9278 75.673 65.3288C75.3854 64.802 74.9265 64.3736 74.362 64.1052C73.7202 63.8 72.8802 63.8 71.2 63.8H59.8C58.1198 63.8 57.2798 63.8 56.638 64.1052C56.0735 64.3736 55.6146 64.802 55.327 65.3288C55 65.9278 55 66.7119 55 68.28V70.52C55 72.0881 55 72.8722 55.327 73.4712C55.6146 73.998 56.0735 74.4264 56.638 74.6948C57.2798 75 58.1198 75 59.8 75Z" stroke="#EC3D5A" stroke-width="3.5" stroke-linecap="round" stroke-linejoin="round"/>
<path d="M79 47.875V40C79 36.8497 79 35.2746 78.346 34.0713C77.7708 33.0129 76.8529 32.1524 75.7239 31.6131C74.4405 31 72.7603 31 69.4 31H28.6C25.2397 31 23.5595 31 22.2761 31.6131C21.1471 32.1524 20.2292 33.0129 19.654 34.0713C19 35.2746 19 36.8497 19 40V50.125C19 53.2753 19 54.8504 19.654 56.0537C20.2292 57.1121 21.1471 57.9726 22.2761 58.5119C23.5595 59.125 25.2397 59.125 28.6 59.125H46M49 45.0625H49.015M64 45.0625H64.015M34 45.0625H34.015M49.75 45.0625C49.75 45.4508 49.4142 45.7656 49 45.7656C48.5858 45.7656 48.25 45.4508 48.25 45.0625C48.25 44.6742 48.5858 44.3594 49 44.3594C49.4142 44.3594 49.75 44.6742 49.75 45.0625ZM64.75 45.0625C64.75 45.4508 64.4142 45.7656 64 45.7656C63.5858 45.7656 63.25 45.4508 63.25 45.0625C63.25 44.6742 63.5858 44.3594 64 44.3594C64.4142 44.3594 64.75 44.6742 64.75 45.0625ZM34.75 45.0625C34.75 45.4508 34.4142 45.7656 34 45.7656C33.5858 45.7656 33.25 45.4508 33.25 45.0625C33.25 44.6742 33.5858 44.3594 34 44.3594C34.4142 44.3594 34.75 44.6742 34.75 45.0625Z" stroke="#073BA1" stroke-width="3.5" stroke-linecap="round" stroke-linejoin="round"/>
</g>
<defs>
<clipPath id="clip0_349_2433">
<rect width="100" height="100" fill="white"/>
</clipPath>
</defs>
</svg>
