<svg width="24" height="24" viewBox="0 0 24 24" fill="none" xmlns="http://www.w3.org/2000/svg">
<path d="M10.4821 13.5114C11.5854 14.6544 12.9204 15.5368 14.3934 16.0967L16.386 14.4775C16.4451 14.436 16.5151 14.4137 16.5869 14.4137C16.6586 14.4137 16.7286 14.436 16.7877 14.4775L20.4876 16.9117C20.628 16.9979 20.7469 17.1163 20.8349 17.2576C20.9228 17.3988 20.9774 17.559 20.9944 17.7254C21.0113 17.8919 20.9901 18.0601 20.9324 18.2167C20.8747 18.3734 20.7821 18.5142 20.662 18.6281L18.9284 20.3768C18.6801 20.6273 18.3749 20.8111 18.0401 20.9119C17.7054 21.0127 17.3513 21.0272 17.0097 20.9543C13.6017 20.2356 10.4605 18.5522 7.94503 16.0967C5.4854 13.6168 3.78335 10.4613 3.04534 7.01301C2.97244 6.66955 2.98765 6.31268 3.08952 5.97698C3.19138 5.64129 3.37644 5.33816 3.62675 5.09696L5.42383 3.32664C5.53504 3.20994 5.67066 3.12045 5.82053 3.06486C5.97041 3.00927 6.13066 2.98902 6.28929 3.00563C6.44791 3.02225 6.6008 3.07529 6.73651 3.16079C6.87221 3.24629 6.98722 3.36204 7.07291 3.49935L9.53597 7.22891C9.57845 7.28747 9.60139 7.35842 9.60139 7.43131C9.60139 7.50419 9.57845 7.57514 9.53597 7.63371L7.91331 9.62532C8.47653 11.0993 9.35401 12.4268 10.4821 13.5114Z" fill="#073BA1"/>
</svg>
