<svg width="64" height="64" viewBox="0 0 64 64" fill="none" xmlns="http://www.w3.org/2000/svg">
<path d="M22.9999 22.6668H10.9999C10.2927 22.6668 9.6144 22.3859 9.1143 21.8858C8.6142 21.3857 8.33325 20.7074 8.33325 20.0002V8.00016C8.33325 7.29292 8.6142 6.61464 9.1143 6.11454C9.6144 5.61445 10.2927 5.3335 10.9999 5.3335C11.7072 5.3335 12.3854 5.61445 12.8855 6.11454C13.3856 6.61464 13.6666 7.29292 13.6666 8.00016V17.3335H22.9999C23.7072 17.3335 24.3854 17.6144 24.8855 18.1145C25.3856 18.6146 25.6666 19.2929 25.6666 20.0002C25.6666 20.7074 25.3856 21.3857 24.8855 21.8858C24.3854 22.3859 23.7072 22.6668 22.9999 22.6668Z" fill="#073BA1"/>
<path d="M55.9999 34.6666C55.2927 34.6666 54.6144 34.3857 54.1143 33.8856C53.6142 33.3855 53.3332 32.7072 53.3332 31.9999C53.3353 27.3054 51.7878 22.7414 48.9308 19.0162C46.0739 15.2911 42.0673 12.613 37.5328 11.3976C32.9983 10.1822 28.1894 10.4975 23.8524 12.2945C19.5154 14.0915 15.8927 17.2697 13.5466 21.3359C13.1922 21.9481 12.6093 22.3944 11.9259 22.5766C11.2425 22.7589 10.5147 22.6623 9.90257 22.3079C9.29045 21.9536 8.84416 21.3706 8.66188 20.6873C8.47959 20.0039 8.57624 19.2761 8.93057 18.6639C11.8646 13.5819 16.3937 9.6102 21.8154 7.36498C27.2371 5.11975 33.2482 4.72653 38.9161 6.24632C44.5841 7.7661 49.592 11.1139 53.1631 15.7704C56.7342 20.4269 58.6687 26.1318 58.6666 31.9999C58.6666 32.7072 58.3856 33.3855 57.8855 33.8856C57.3854 34.3857 56.7072 34.6666 55.9999 34.6666ZM52.9999 58.6666C52.2927 58.6666 51.6144 58.3857 51.1143 57.8856C50.6142 57.3855 50.3332 56.7072 50.3332 55.9999V46.6666H40.9999C40.2927 46.6666 39.6144 46.3857 39.1143 45.8856C38.6142 45.3855 38.3332 44.7072 38.3332 43.9999C38.3332 43.2927 38.6142 42.6144 39.1143 42.1143C39.6144 41.6142 40.2927 41.3333 40.9999 41.3333H52.9999C53.7072 41.3333 54.3854 41.6142 54.8855 42.1143C55.3856 42.6144 55.6666 43.2927 55.6666 43.9999V55.9999C55.6666 56.7072 55.3856 57.3855 54.8855 57.8856C54.3854 58.3857 53.7072 58.6666 52.9999 58.6666Z" fill="#073BA1"/>
<path d="M31.9999 58.6668C24.9301 58.6584 18.1522 55.8461 13.1531 50.847C8.15396 45.8479 5.34172 39.07 5.33325 32.0002C5.33325 31.2929 5.6142 30.6146 6.1143 30.1145C6.6144 29.6144 7.29267 29.3335 7.99992 29.3335C8.70716 29.3335 9.38544 29.6144 9.88554 30.1145C10.3856 30.6146 10.6666 31.2929 10.6666 32.0002C10.6646 36.6947 12.2121 41.2587 15.069 44.9839C17.9259 48.709 21.9325 51.3871 26.467 52.6025C31.0015 53.8179 35.8104 53.5026 40.1474 51.7056C44.4845 49.9087 48.1071 46.7304 50.4533 42.6642C50.6287 42.3611 50.8621 42.0955 51.1402 41.8826C51.4183 41.6697 51.7356 41.5137 52.0739 41.4235C52.4123 41.3332 52.7652 41.3105 53.1123 41.3566C53.4595 41.4027 53.7942 41.5167 54.0973 41.6922C54.4003 41.8676 54.6659 42.101 54.8788 42.3791C55.0917 42.6572 55.2477 42.9745 55.3379 43.3129C55.4282 43.6512 55.4509 44.0041 55.4048 44.3512C55.3587 44.6984 55.2447 45.0331 55.0693 45.3362C52.7239 49.3801 49.3599 52.7389 45.3122 55.0778C41.2646 57.4167 36.6747 58.6542 31.9999 58.6668Z" fill="#073BA1"/>
</svg>
