<svg width="60" height="60" viewBox="0 0 60 60" fill="none" xmlns="http://www.w3.org/2000/svg">
<circle cx="30" cy="30" r="27" stroke="#EBF2FF" stroke-width="4"/>
<path d="M30 3C37.1608 3 44.0284 5.84463 49.0919 10.9081C54.1554 15.9716 57 22.8391 57 30" stroke="#48CC55" stroke-width="4"/>
<path d="M15.104 36C14.9973 36 14.9067 35.9627 14.832 35.888C14.7573 35.8133 14.72 35.7227 14.72 35.616V34.8C14.72 34.704 14.7413 34.592 14.784 34.464C14.8373 34.3253 14.9493 34.1867 15.12 34.048L17.648 31.536C18.352 30.9813 18.9173 30.512 19.344 30.128C19.7813 29.7333 20.096 29.376 20.288 29.056C20.4907 28.7253 20.592 28.4 20.592 28.08C20.592 27.6 20.4587 27.2107 20.192 26.912C19.936 26.6133 19.5253 26.464 18.96 26.464C18.5867 26.464 18.272 26.544 18.016 26.704C17.76 26.8533 17.5573 27.056 17.408 27.312C17.2693 27.568 17.1733 27.8507 17.12 28.16C17.0987 28.2987 17.04 28.3947 16.944 28.448C16.848 28.5013 16.752 28.528 16.656 28.528H15.232C15.136 28.528 15.056 28.496 14.992 28.432C14.928 28.368 14.896 28.2933 14.896 28.208C14.9067 27.7493 15.0027 27.3067 15.184 26.88C15.3653 26.4427 15.6267 26.0587 15.968 25.728C16.32 25.3867 16.7467 25.1147 17.248 24.912C17.7493 24.7093 18.3147 24.608 18.944 24.608C19.8293 24.608 20.56 24.7573 21.136 25.056C21.7227 25.3547 22.16 25.76 22.448 26.272C22.7467 26.784 22.896 27.36 22.896 28C22.896 28.5013 22.8 28.9653 22.608 29.392C22.416 29.808 22.1387 30.2133 21.776 30.608C21.4133 30.992 20.976 31.3867 20.464 31.792L18.192 34.096H22.752C22.8693 34.096 22.96 34.1333 23.024 34.208C23.0987 34.272 23.136 34.3627 23.136 34.48V35.616C23.136 35.7227 23.0987 35.8133 23.024 35.888C22.96 35.9627 22.8693 36 22.752 36H15.104ZM28.8023 36.176C27.8849 36.176 27.1116 36.0267 26.4823 35.728C25.8529 35.4187 25.3729 35.0187 25.0423 34.528C24.7223 34.0373 24.5516 33.5147 24.5303 32.96C24.5196 32.864 24.5463 32.7893 24.6103 32.736C24.6849 32.672 24.7703 32.64 24.8663 32.64H26.3543C26.4716 32.64 26.5676 32.6667 26.6423 32.72C26.7276 32.7627 26.7916 32.8427 26.8343 32.96C26.9409 33.28 27.0903 33.5413 27.2823 33.744C27.4849 33.9467 27.7143 34.096 27.9703 34.192C28.2369 34.288 28.5143 34.336 28.8023 34.336C29.1863 34.336 29.5329 34.2613 29.8423 34.112C30.1623 33.952 30.4183 33.7173 30.6103 33.408C30.8023 33.0987 30.8983 32.72 30.8983 32.272C30.8983 31.8773 30.8076 31.536 30.6263 31.248C30.4449 30.96 30.1943 30.736 29.8743 30.576C29.5649 30.4053 29.2076 30.32 28.8023 30.32C28.5036 30.32 28.2583 30.3573 28.0663 30.432C27.8743 30.5067 27.7089 30.592 27.5703 30.688C27.4423 30.784 27.3249 30.8693 27.2183 30.944C27.1223 31.0187 27.0103 31.056 26.8823 31.056H25.4103C25.3143 31.056 25.2289 31.024 25.1543 30.96C25.0903 30.8853 25.0583 30.8 25.0583 30.704L25.6183 25.232C25.6289 25.0933 25.6769 24.9867 25.7623 24.912C25.8476 24.8373 25.9489 24.8 26.0663 24.8H32.0823C32.1889 24.8 32.2796 24.8373 32.3542 24.912C32.4289 24.9867 32.4663 25.0773 32.4663 25.184V26.256C32.4663 26.3627 32.4289 26.4533 32.3542 26.528C32.2796 26.6027 32.1889 26.64 32.0823 26.64H27.4583L27.2023 29.248C27.3943 29.12 27.6503 28.9973 27.9703 28.88C28.2903 28.7627 28.7329 28.704 29.2983 28.704C29.8103 28.704 30.2956 28.7893 30.7543 28.96C31.2236 29.12 31.6396 29.36 32.0023 29.68C32.3649 29.9893 32.6476 30.368 32.8503 30.816C33.0636 31.2533 33.1703 31.7547 33.1703 32.32C33.1703 33.0987 32.9889 33.776 32.6263 34.352C32.2636 34.928 31.7569 35.376 31.1063 35.696C30.4556 36.016 29.6876 36.176 28.8023 36.176ZM35.5881 36C35.3641 36 35.2521 35.8933 35.2521 35.68C35.2521 35.616 35.2735 35.5573 35.3161 35.504L43.2041 25.104C43.2788 25.008 43.3535 24.9333 43.4281 24.88C43.5028 24.8267 43.6095 24.8 43.7481 24.8H44.5961C44.8201 24.8 44.9321 24.9067 44.9321 25.12C44.9321 25.184 44.9108 25.2427 44.8681 25.296L36.9801 35.696C36.9055 35.792 36.8308 35.8667 36.7561 35.92C36.6921 35.9733 36.5855 36 36.4361 36H35.5881ZM43.2841 36.096C42.5695 36.096 42.0041 35.8987 41.5881 35.504C41.1721 35.1093 40.9428 34.592 40.9001 33.952C40.8895 33.6747 40.8841 33.4347 40.8841 33.232C40.8841 33.0293 40.8895 32.7787 40.9001 32.48C40.9428 31.84 41.1615 31.3227 41.5561 30.928C41.9615 30.5333 42.5375 30.336 43.2841 30.336C44.0415 30.336 44.6175 30.5333 45.0121 30.928C45.4175 31.3227 45.6361 31.84 45.6681 32.48C45.6895 32.7787 45.7001 33.0293 45.7001 33.232C45.7001 33.4347 45.6895 33.6747 45.6681 33.952C45.6361 34.592 45.4068 35.1093 44.9801 35.504C44.5641 35.8987 43.9988 36.096 43.2841 36.096ZM43.2841 34.848C43.5188 34.848 43.7001 34.8 43.8281 34.704C43.9668 34.608 44.0681 34.4853 44.1321 34.336C44.1961 34.1867 44.2281 34.0373 44.2281 33.888C44.2495 33.6213 44.2601 33.3973 44.2601 33.216C44.2601 33.024 44.2495 32.8053 44.2281 32.56C44.2175 32.3147 44.1428 32.0907 44.0041 31.888C43.8655 31.6747 43.6255 31.568 43.2841 31.568C42.9535 31.568 42.7188 31.6747 42.5801 31.888C42.4415 32.0907 42.3615 32.3147 42.3401 32.56C42.3295 32.8053 42.3241 33.024 42.3241 33.216C42.3241 33.3973 42.3295 33.6213 42.3401 33.888C42.3615 34.0373 42.3988 34.1867 42.4521 34.336C42.5161 34.4853 42.6121 34.608 42.7401 34.704C42.8788 34.8 43.0601 34.848 43.2841 34.848ZM36.9001 30.432C36.1855 30.432 35.6201 30.2453 35.2041 29.872C34.7881 29.4987 34.5588 28.992 34.5161 28.352C34.5055 28.0747 34.5001 27.8347 34.5001 27.632C34.5001 27.4187 34.5055 27.1627 34.5161 26.864C34.5588 26.224 34.7775 25.7067 35.1721 25.312C35.5775 24.9173 36.1535 24.72 36.9001 24.72C37.6575 24.72 38.2335 24.9173 38.6281 25.312C39.0335 25.7067 39.2521 26.224 39.2841 26.864C39.3055 27.1627 39.3161 27.4187 39.3161 27.632C39.3161 27.8347 39.3055 28.0747 39.2841 28.352C39.2521 28.992 39.0228 29.4987 38.5961 29.872C38.1801 30.2453 37.6148 30.432 36.9001 30.432ZM36.9001 29.248C37.1348 29.248 37.3161 29.2 37.4441 29.104C37.5828 29.008 37.6841 28.8853 37.7481 28.736C37.8121 28.5867 37.8441 28.432 37.8441 28.272C37.8655 28.0053 37.8761 27.7813 37.8761 27.6C37.8761 27.408 37.8655 27.1893 37.8441 26.944C37.8335 26.6987 37.7588 26.4747 37.6201 26.272C37.4815 26.0693 37.2415 25.968 36.9001 25.968C36.5695 25.968 36.3348 26.0693 36.1961 26.272C36.0575 26.4747 35.9828 26.6987 35.9721 26.944C35.9615 27.1893 35.9561 27.408 35.9561 27.6C35.9561 27.7813 35.9615 28.0053 35.9721 28.272C35.9828 28.432 36.0148 28.5867 36.0681 28.736C36.1321 28.8853 36.2281 29.008 36.3561 29.104C36.4948 29.2 36.6761 29.248 36.9001 29.248Z" fill="#073BA1"/>
</svg>
