<svg width="60" height="60" viewBox="0 0 60 60" fill="none" xmlns="http://www.w3.org/2000/svg">
<circle cx="30" cy="30" r="27" stroke="#EBF2FF" stroke-width="4"/>
<path d="M30 3C33.5457 3 37.0567 3.69838 40.3325 5.05525C43.6082 6.41213 46.5847 8.40094 49.0919 10.9081C51.5991 13.4153 53.5879 16.3918 54.9447 19.6676C56.3016 22.9433 57 26.4543 57 30C57 33.5457 56.3016 37.0567 54.9447 40.3325C53.5879 43.6082 51.5991 46.5847 49.0919 49.0919C46.5847 51.5991 43.6082 53.5879 40.3324 54.9448C37.0567 56.3016 33.5457 57 30 57" stroke="#48CC55" stroke-width="4"/>
<path d="M18.896 36.176C17.9787 36.176 17.2053 36.0267 16.576 35.728C15.9467 35.4187 15.4667 35.0187 15.136 34.528C14.816 34.0373 14.6453 33.5147 14.624 32.96C14.6133 32.864 14.64 32.7893 14.704 32.736C14.7787 32.672 14.864 32.64 14.96 32.64H16.448C16.5653 32.64 16.6613 32.6667 16.736 32.72C16.8213 32.7627 16.8853 32.8427 16.928 32.96C17.0347 33.28 17.184 33.5413 17.376 33.744C17.5787 33.9467 17.808 34.096 18.064 34.192C18.3307 34.288 18.608 34.336 18.896 34.336C19.28 34.336 19.6267 34.2613 19.936 34.112C20.256 33.952 20.512 33.7173 20.704 33.408C20.896 33.0987 20.992 32.72 20.992 32.272C20.992 31.8773 20.9013 31.536 20.72 31.248C20.5387 30.96 20.288 30.736 19.968 30.576C19.6587 30.4053 19.3013 30.32 18.896 30.32C18.5973 30.32 18.352 30.3573 18.16 30.432C17.968 30.5067 17.8027 30.592 17.664 30.688C17.536 30.784 17.4187 30.8693 17.312 30.944C17.216 31.0187 17.104 31.056 16.976 31.056H15.504C15.408 31.056 15.3227 31.024 15.248 30.96C15.184 30.8853 15.152 30.8 15.152 30.704L15.712 25.232C15.7227 25.0933 15.7707 24.9867 15.856 24.912C15.9413 24.8373 16.0427 24.8 16.16 24.8H22.176C22.2827 24.8 22.3733 24.8373 22.448 24.912C22.5227 24.9867 22.56 25.0773 22.56 25.184V26.256C22.56 26.3627 22.5227 26.4533 22.448 26.528C22.3733 26.6027 22.2827 26.64 22.176 26.64H17.552L17.296 29.248C17.488 29.12 17.744 28.9973 18.064 28.88C18.384 28.7627 18.8267 28.704 19.392 28.704C19.904 28.704 20.3893 28.7893 20.848 28.96C21.3173 29.12 21.7333 29.36 22.096 29.68C22.4587 29.9893 22.7413 30.368 22.944 30.816C23.1573 31.2533 23.264 31.7547 23.264 32.32C23.264 33.0987 23.0827 33.776 22.72 34.352C22.3573 34.928 21.8507 35.376 21.2 35.696C20.5493 36.016 19.7813 36.176 18.896 36.176ZM29.1699 36.16C28.4125 36.16 27.7672 36.048 27.2339 35.824C26.7005 35.6 26.2632 35.2907 25.9219 34.896C25.5805 34.5013 25.3245 34.048 25.1539 33.536C24.9832 33.0133 24.8819 32.4587 24.8499 31.872C24.8392 31.584 24.8285 31.2693 24.8179 30.928C24.8179 30.576 24.8179 30.224 24.8179 29.872C24.8285 29.52 24.8392 29.1947 24.8499 28.896C24.8712 28.3093 24.9725 27.76 25.1539 27.248C25.3352 26.7253 25.5965 26.272 25.9379 25.888C26.2899 25.504 26.7325 25.2 27.2659 24.976C27.7992 24.752 28.4339 24.64 29.1699 24.64C29.9165 24.64 30.5565 24.752 31.0899 24.976C31.6232 25.2 32.0605 25.504 32.4019 25.888C32.7539 26.272 33.0152 26.7253 33.1859 27.248C33.3672 27.76 33.4685 28.3093 33.4899 28.896C33.5112 29.1947 33.5219 29.52 33.5219 29.872C33.5219 30.224 33.5219 30.576 33.5219 30.928C33.5219 31.2693 33.5112 31.584 33.4899 31.872C33.4685 32.4587 33.3725 33.0133 33.2019 33.536C33.0312 34.048 32.7752 34.5013 32.4339 34.896C32.0925 35.2907 31.6499 35.6 31.1059 35.824C30.5725 36.048 29.9272 36.16 29.1699 36.16ZM29.1699 34.32C29.8632 34.32 30.3699 34.096 30.6899 33.648C31.0205 33.1893 31.1912 32.5707 31.2019 31.792C31.2232 31.4827 31.2339 31.1733 31.2339 30.864C31.2339 30.544 31.2339 30.224 31.2339 29.904C31.2339 29.584 31.2232 29.28 31.2019 28.992C31.1912 28.2347 31.0205 27.6267 30.6899 27.168C30.3699 26.6987 29.8632 26.464 29.1699 26.464C28.4872 26.464 27.9805 26.6987 27.6499 27.168C27.3299 27.6267 27.1592 28.2347 27.1379 28.992C27.1379 29.28 27.1325 29.584 27.1219 29.904C27.1219 30.224 27.1219 30.544 27.1219 30.864C27.1325 31.1733 27.1379 31.4827 27.1379 31.792C27.1592 32.5707 27.3352 33.1893 27.6659 33.648C27.9965 34.096 28.4979 34.32 29.1699 34.32ZM36.1975 36C35.9735 36 35.8615 35.8933 35.8615 35.68C35.8615 35.616 35.8828 35.5573 35.9255 35.504L43.8135 25.104C43.8882 25.008 43.9628 24.9333 44.0375 24.88C44.1122 24.8267 44.2188 24.8 44.3575 24.8H45.2055C45.4295 24.8 45.5415 24.9067 45.5415 25.12C45.5415 25.184 45.5202 25.2427 45.4775 25.296L37.5895 35.696C37.5148 35.792 37.4402 35.8667 37.3655 35.92C37.3015 35.9733 37.1948 36 37.0455 36H36.1975ZM43.8935 36.096C43.1788 36.096 42.6135 35.8987 42.1975 35.504C41.7815 35.1093 41.5522 34.592 41.5095 33.952C41.4988 33.6747 41.4935 33.4347 41.4935 33.232C41.4935 33.0293 41.4988 32.7787 41.5095 32.48C41.5522 31.84 41.7708 31.3227 42.1655 30.928C42.5708 30.5333 43.1468 30.336 43.8935 30.336C44.6508 30.336 45.2268 30.5333 45.6215 30.928C46.0268 31.3227 46.2455 31.84 46.2775 32.48C46.2988 32.7787 46.3095 33.0293 46.3095 33.232C46.3095 33.4347 46.2988 33.6747 46.2775 33.952C46.2455 34.592 46.0162 35.1093 45.5895 35.504C45.1735 35.8987 44.6082 36.096 43.8935 36.096ZM43.8935 34.848C44.1282 34.848 44.3095 34.8 44.4375 34.704C44.5762 34.608 44.6775 34.4853 44.7415 34.336C44.8055 34.1867 44.8375 34.0373 44.8375 33.888C44.8588 33.6213 44.8695 33.3973 44.8695 33.216C44.8695 33.024 44.8588 32.8053 44.8375 32.56C44.8268 32.3147 44.7522 32.0907 44.6135 31.888C44.4748 31.6747 44.2348 31.568 43.8935 31.568C43.5628 31.568 43.3282 31.6747 43.1895 31.888C43.0508 32.0907 42.9708 32.3147 42.9495 32.56C42.9388 32.8053 42.9335 33.024 42.9335 33.216C42.9335 33.3973 42.9388 33.6213 42.9495 33.888C42.9708 34.0373 43.0082 34.1867 43.0615 34.336C43.1255 34.4853 43.2215 34.608 43.3495 34.704C43.4882 34.8 43.6695 34.848 43.8935 34.848ZM37.5095 30.432C36.7948 30.432 36.2295 30.2453 35.8135 29.872C35.3975 29.4987 35.1682 28.992 35.1255 28.352C35.1148 28.0747 35.1095 27.8347 35.1095 27.632C35.1095 27.4187 35.1148 27.1627 35.1255 26.864C35.1682 26.224 35.3868 25.7067 35.7815 25.312C36.1868 24.9173 36.7628 24.72 37.5095 24.72C38.2668 24.72 38.8428 24.9173 39.2375 25.312C39.6428 25.7067 39.8615 26.224 39.8935 26.864C39.9148 27.1627 39.9255 27.4187 39.9255 27.632C39.9255 27.8347 39.9148 28.0747 39.8935 28.352C39.8615 28.992 39.6322 29.4987 39.2055 29.872C38.7895 30.2453 38.2242 30.432 37.5095 30.432ZM37.5095 29.248C37.7442 29.248 37.9255 29.2 38.0535 29.104C38.1922 29.008 38.2935 28.8853 38.3575 28.736C38.4215 28.5867 38.4535 28.432 38.4535 28.272C38.4748 28.0053 38.4855 27.7813 38.4855 27.6C38.4855 27.408 38.4748 27.1893 38.4535 26.944C38.4428 26.6987 38.3682 26.4747 38.2295 26.272C38.0908 26.0693 37.8508 25.968 37.5095 25.968C37.1788 25.968 36.9442 26.0693 36.8055 26.272C36.6668 26.4747 36.5922 26.6987 36.5815 26.944C36.5708 27.1893 36.5655 27.408 36.5655 27.6C36.5655 27.7813 36.5708 28.0053 36.5815 28.272C36.5922 28.432 36.6242 28.5867 36.6775 28.736C36.7415 28.8853 36.8375 29.008 36.9655 29.104C37.1042 29.2 37.2855 29.248 37.5095 29.248Z" fill="#073BA1"/>
</svg>
