<svg width="40" height="40" viewBox="0 0 40 40" fill="none" xmlns="http://www.w3.org/2000/svg">
<path d="M10.8333 16.6666C10.4617 16.6666 10.105 16.7232 9.75 16.7749C9.865 16.3882 9.98333 15.9949 10.1733 15.6416C10.3633 15.1282 10.66 14.6832 10.955 14.2349C11.2017 13.7499 11.6367 13.4216 11.9567 13.0066C12.2917 12.6032 12.7483 12.3349 13.11 11.9999C13.465 11.6499 13.93 11.4749 14.3 11.2282C14.6867 11.0066 15.0233 10.7616 15.3833 10.6449L16.2817 10.2749L17.0717 9.94655L16.2633 6.71655L15.2683 6.95655C14.95 7.03655 14.5617 7.12989 14.12 7.24155C13.6683 7.32489 13.1867 7.55322 12.65 7.76155C12.12 7.99822 11.5067 8.15822 10.9367 8.53822C10.3633 8.90155 9.70166 9.20489 9.11833 9.69155C8.55333 10.1932 7.87166 10.6282 7.36833 11.2666C6.81833 11.8632 6.275 12.4899 5.85333 13.2032C5.365 13.8832 5.03333 14.6299 4.68333 15.3682C4.36666 16.1066 4.11166 16.8616 3.90333 17.5949C3.50833 19.0649 3.33166 20.4616 3.26333 21.6566C3.20666 22.8532 3.24 23.8482 3.31 24.5682C3.335 24.9082 3.38166 25.2382 3.415 25.4666L3.45666 25.7466L3.5 25.7366C3.79643 27.1213 4.47884 28.3938 5.46827 29.4069C6.4577 30.4199 7.71373 31.1322 9.09106 31.4613C10.4684 31.7903 11.9107 31.7227 13.2513 31.2663C14.5918 30.8098 15.7757 29.9832 16.666 28.882C17.5563 27.7808 18.1167 26.4501 18.2824 25.0437C18.448 23.6373 18.2121 22.2128 17.6019 20.9349C16.9917 19.657 16.0322 18.578 14.8344 17.8226C13.6366 17.0673 12.2494 16.6665 10.8333 16.6666ZM29.1667 16.6666C28.795 16.6666 28.4383 16.7232 28.0833 16.7749C28.1983 16.3882 28.3167 15.9949 28.5067 15.6416C28.6967 15.1282 28.9933 14.6832 29.2883 14.2349C29.535 13.7499 29.97 13.4216 30.29 13.0066C30.625 12.6032 31.0817 12.3349 31.4433 11.9999C31.7983 11.6499 32.2633 11.4749 32.6333 11.2282C33.02 11.0066 33.3567 10.7616 33.7167 10.6449L34.615 10.2749L35.405 9.94655L34.5967 6.71655L33.6017 6.95655C33.2833 7.03655 32.895 7.12989 32.4533 7.24155C32.0017 7.32489 31.52 7.55322 30.9833 7.76155C30.455 7.99989 29.84 8.15822 29.27 8.53989C28.6967 8.90322 28.035 9.20655 27.4517 9.69322C26.8867 10.1949 26.205 10.6299 25.7017 11.2666C25.1517 11.8632 24.6083 12.4899 24.1867 13.2032C23.6983 13.8832 23.3667 14.6299 23.0167 15.3682C22.7 16.1066 22.445 16.8616 22.2367 17.5949C21.8417 19.0649 21.665 20.4616 21.5967 21.6566C21.54 22.8532 21.5733 23.8482 21.6433 24.5682C21.6683 24.9082 21.715 25.2382 21.7483 25.4666L21.79 25.7466L21.8333 25.7366C22.1298 27.1213 22.8122 28.3938 23.8016 29.4069C24.791 30.4199 26.0471 31.1322 27.4244 31.4613C28.8017 31.7903 30.2441 31.7227 31.5846 31.2663C32.9251 30.8098 34.109 29.9832 34.9993 28.882C35.8897 27.7808 36.4501 26.4501 36.6157 25.0437C36.7813 23.6373 36.5454 22.2128 35.9352 20.9349C35.325 19.657 34.3656 18.578 33.1677 17.8226C31.9699 17.0673 30.5828 16.6665 29.1667 16.6666Z" fill="#073BA1"/>
</svg>
