<svg width="24" height="24" viewBox="0 0 24 24" fill="none" xmlns="http://www.w3.org/2000/svg">
<path d="M16.2356 7.75022L16.2426 7.75739L16.2498 7.76443L19.114 10.5716C19.9141 11.3558 19.9141 12.6442 19.114 13.4284L16.2498 16.2356L16.2426 16.2426L16.2356 16.2498L13.4284 19.114C12.6442 19.9141 11.3558 19.9141 10.5716 19.114L7.76443 16.2498L7.75739 16.2426L7.75022 16.2356L4.886 13.4284C4.08591 12.6442 4.08591 11.3558 4.886 10.5716L7.75022 7.76443L7.75739 7.75739L7.76443 7.75022L10.5716 4.886C11.3558 4.08591 12.6442 4.08591 13.4284 4.886L16.2356 7.75022Z" stroke="#073BA1" stroke-width="2"/>
</svg>
