<svg width="126" height="20" viewBox="0 0 126 20" fill="none" xmlns="http://www.w3.org/2000/svg">
<path d="M17.345 3.85144C17.805 4.4602 18.1944 5.12157 18.5053 5.82227L9.68519 12.4781L5.99902 10.1127V7.26692L9.68519 9.63237L17.345 3.85144Z" fill="#21A038"/>
<path d="M2.23696 9.91182C2.23696 9.78413 2.24 9.65728 2.24609 9.53116L0.0121663 9.4191C0.00456278 9.58255 2.69959e-06 9.74758 2.69959e-06 9.91413C-0.000947772 11.2155 0.249092 12.5041 0.735786 13.7062C1.22248 14.9084 1.93624 16.0004 2.83612 16.9195L4.4207 15.2981C3.728 14.5919 3.17848 13.7524 2.80372 12.8281C2.42896 11.9037 2.23635 10.9126 2.23696 9.91182Z" fill="url(#paint0_linear_842_16269)"/>
<path d="M9.68295 2.28939C9.80763 2.28939 9.93153 2.29406 10.0547 2.30029L10.1665 0.012659C10.0064 0.00487529 9.84513 0.000983914 9.68295 0.000983914C8.41113 -0.000603771 7.15161 0.254992 5.97661 0.753094C4.8016 1.2512 3.73428 1.982 2.83594 2.90353L4.42051 4.52565C5.11045 3.81631 5.93055 3.25356 6.83367 2.86978C7.73679 2.48601 8.70507 2.28876 9.68295 2.28939Z" fill="url(#paint1_linear_842_16269)"/>
<path d="M9.68354 17.5344C9.55886 17.5344 9.4349 17.5344 9.311 17.5243L9.19922 19.8112C9.3599 19.8195 9.52136 19.8236 9.68354 19.8236C10.9548 19.825 12.2137 19.5692 13.3881 19.071C14.5625 18.5727 15.6291 17.8418 16.5268 16.9203L14.9452 15.299C14.2552 16.008 13.4352 16.5704 12.5322 16.954C11.6293 17.3376 10.6612 17.5349 9.68354 17.5344Z" fill="url(#paint2_linear_842_16269)"/>
<path d="M13.8799 3.61944L15.7625 2.19891C14.0418 0.772515 11.8939 -0.00395952 9.67969 1.5184e-05V2.2892C11.179 2.2873 12.6436 2.75114 13.8799 3.61944Z" fill="url(#paint3_linear_842_16269)"/>
<path d="M19.3659 9.91183C19.3671 9.31632 19.3162 8.72183 19.2138 8.13559L17.1297 9.70789C17.1297 9.77565 17.1297 9.84335 17.1297 9.91183C17.1302 10.9769 16.9121 12.0301 16.4896 13.0033C16.067 13.9766 15.4494 14.848 14.6768 15.5612L16.18 17.262C17.1845 16.3337 17.9871 15.1997 18.536 13.9335C19.0848 12.6673 19.3676 11.2971 19.3659 9.91183Z" fill="#21A038"/>
<path d="M9.68296 17.5344C8.6425 17.5348 7.61356 17.3115 6.66274 16.8789C5.71197 16.4464 4.86052 15.8142 4.16354 15.0234L2.50293 16.5615C3.40962 17.5899 4.51734 18.4117 5.75426 18.9737C6.99118 19.5356 8.32966 19.8252 9.68296 19.8236V17.5344Z" fill="url(#paint4_linear_842_16269)"/>
<path d="M4.68987 4.26235L3.18741 2.56161C2.18266 3.48972 1.37969 4.62366 0.83058 5.88989C0.281479 7.15611 -0.00149704 8.52635 5.95597e-06 9.91175H2.23697C2.23651 8.84678 2.45462 7.79351 2.87717 6.82029C3.29973 5.84711 3.9173 4.97563 4.68987 4.26235Z" fill="url(#paint5_linear_842_16269)"/>
<path d="M55.8787 5.66836L58.6492 3.60254H49.377V16.0164H58.6492V13.9505H52.0227V10.7707H57.6754V8.7049H52.0227V5.66836H55.8787Z" fill="#21A038"/>
<path d="M43.1377 8.43852H39.9186V5.66753H45.0562L47.8251 3.59543H37.2744V16.0092H42.7972C45.8936 16.0092 47.6706 14.5889 47.6706 12.1118C47.6706 9.74203 46.0611 8.43852 43.1377 8.43852ZM42.6781 13.9428H39.9186V10.5031H42.6781C44.3529 10.5031 45.1381 11.0795 45.1381 12.2229C45.1381 13.3663 44.3026 13.9428 42.6781 13.9428Z" fill="#21A038"/>
<path d="M65.4642 3.60077H60.417V16.0145H63.0624V12.4979H65.4642C68.6844 12.4979 70.6764 10.783 70.6764 8.04272C70.6764 5.30256 68.6844 3.60077 65.4642 3.60077ZM65.4084 10.4305H63.0624V5.66817H65.4084C67.1022 5.66817 68.037 6.51436 68.037 8.0503C68.037 9.58624 67.1022 10.4305 65.4084 10.4305Z" fill="#21A038"/>
<path d="M33.3043 13.085C32.6209 13.4595 31.8552 13.6534 31.0781 13.6488C28.7523 13.6488 27.065 11.9683 27.065 9.65417C27.065 7.33999 28.7523 5.6558 31.0781 5.6558C31.9169 5.64138 32.7382 5.89879 33.4222 6.39047L35.2727 5.01114L35.1475 4.92115C34.0681 3.96059 32.6257 3.45184 30.9748 3.45184C29.1841 3.45184 27.5603 4.0616 26.401 5.17093C25.8148 5.7421 25.3513 6.42944 25.0391 7.19005C24.727 7.95066 24.5729 8.76817 24.5868 9.59169C24.5744 10.4236 24.7277 11.2494 25.0375 12.02C25.3474 12.7907 25.8074 13.4901 26.3902 14.0768C27.5549 15.2302 29.175 15.8656 30.953 15.8656C32.8108 15.8656 34.4345 15.2099 35.534 14.0162L33.8776 12.7673L33.3043 13.085Z" fill="#21A038"/>
<path d="M81.1665 8.43852H77.9487V5.66753H84.8637V3.59543H75.3027V16.0092H80.8185C83.9145 16.0092 85.6917 14.5889 85.6917 12.1118C85.6989 9.74203 84.0897 8.43852 81.1665 8.43852ZM80.7069 13.9428H77.9487V10.5031H80.7069C82.3815 10.5031 83.1663 11.0795 83.1663 12.2229C83.1663 13.3663 82.3383 13.9428 80.7069 13.9428Z" fill="#21A038"/>
<path d="M115.769 15.9915H113.087V3.5777H115.769V8.79158H117.229L121.171 3.5777H124.21L119.535 9.48309L124.964 15.9915H121.405L117.415 11.1093H115.769V15.9915Z" fill="#21A038"/>
<path d="M95.4359 13.6324H89.7623L88.8005 16.043H85.9463L91.2677 3.62918H94.1213L99.3563 16.043H96.3977L95.4359 13.6324ZM94.5473 11.3831L92.6159 6.56181L90.6737 11.3831H94.5473Z" fill="#21A038"/>
<path d="M102.967 3.62918V8.81296H108.517V3.62918H111.282V16.043H108.517V11.1515H102.967V16.043H100.201V3.62918H102.967Z" fill="#21A038"/>
<defs>
<linearGradient id="paint0_linear_842_16269" x1="3.28853" y1="16.6338" x2="0.74063" y2="9.43885" gradientUnits="userSpaceOnUse">
<stop offset="0.14" stop-color="#F1E813"/>
<stop offset="0.3" stop-color="#E6E418"/>
<stop offset="0.58" stop-color="#C9DA26"/>
<stop offset="0.89" stop-color="#A2CC39"/>
</linearGradient>
<linearGradient id="paint1_linear_842_16269" x1="3.47463" y1="3.30828" x2="9.80632" y2="0.951211" gradientUnits="userSpaceOnUse">
<stop offset="0.06" stop-color="#0FA7DF"/>
<stop offset="0.54" stop-color="#0098F8"/>
<stop offset="0.92" stop-color="#0290EA"/>
</linearGradient>
<linearGradient id="paint2_linear_842_16269" x1="9.05174" y1="18.442" x2="16.186" y2="16.8676" gradientUnits="userSpaceOnUse">
<stop offset="0.12" stop-color="#A2CC39"/>
<stop offset="0.28" stop-color="#86C239"/>
<stop offset="0.87" stop-color="#219F38"/>
</linearGradient>
<linearGradient id="paint3_linear_842_16269" x1="9.21439" y1="0.766709" x2="15.3245" y2="2.60864" gradientUnits="userSpaceOnUse">
<stop offset="0.06" stop-color="#0290EA"/>
<stop offset="0.79" stop-color="#0C89CA"/>
</linearGradient>
<linearGradient id="paint4_linear_842_16269" x1="3.06407" y1="16.2828" x2="9.72565" y2="18.7148" gradientUnits="userSpaceOnUse">
<stop offset="0.13" stop-color="#F1E813"/>
<stop offset="0.3" stop-color="#EAE616"/>
<stop offset="0.53" stop-color="#D8DF1F"/>
<stop offset="0.8" stop-color="#BAD52D"/>
<stop offset="0.98" stop-color="#A2CC39"/>
</linearGradient>
<linearGradient id="paint5_linear_842_16269" x1="0.833352" y1="10.1888" x2="3.60272" y2="3.15148" gradientUnits="userSpaceOnUse">
<stop offset="0.07" stop-color="#A2CC39"/>
<stop offset="0.26" stop-color="#81C45E"/>
<stop offset="0.92" stop-color="#0FA7DF"/>
</linearGradient>
</defs>
</svg>
