<svg width="100" height="100" viewBox="0 0 100 100" fill="none" xmlns="http://www.w3.org/2000/svg">
<g clip-path="url(#clip0_349_2403)">
<circle cx="50" cy="50" r="50" fill="#EBF2FF"/>
<path d="M79 63V59H74.798C74.5404 57.7479 74.0433 56.5574 73.334 55.494L76.314 52.514L73.486 49.686L70.506 52.666C69.4426 51.9567 68.2521 51.4596 67 51.202V47H63V51.202C61.7479 51.4596 60.5574 51.9567 59.494 52.666L56.514 49.686L53.686 52.514L56.666 55.494C55.9567 56.5574 55.4596 57.7479 55.202 59H51V63H55.202C55.462 64.274 55.97 65.458 56.666 66.506L53.686 69.486L56.514 72.314L59.494 69.334C60.5574 70.0433 61.7479 70.5404 63 70.798V75H67V70.798C68.2521 70.5404 69.4426 70.0433 70.506 69.334L73.486 72.314L76.314 69.486L73.334 66.506C74.0433 65.4426 74.5404 64.2521 74.798 63H79ZM65 67C61.692 67 59 64.308 59 61C59 57.692 61.692 55 65 55C68.308 55 71 57.692 71 61C71 64.308 68.308 67 65 67Z" fill="#EC3D5A"/>
<path d="M32 71.0714C31.4477 71.0714 31 70.6237 31 70.0714V24.9286C31 24.3763 31.4477 23.9286 32 23.9286H62C62.5523 23.9286 63 24.3763 63 24.9286V39.6071C63 40.7117 63.8954 41.6071 65 41.6071C66.1046 41.6071 67 40.7117 67 39.6071V23.9286C67 21.762 65.206 20 63 20H31C28.794 20 27 21.762 27 23.9286V71.0714C27 73.238 28.794 75 31 75H45.0357C46.1206 75 47 74.1206 47 73.0357C47 71.9509 46.1206 71.0714 45.0357 71.0714H32Z" fill="#073BA1"/>
<rect x="43" y="28" width="8" height="4" rx="2" fill="#073BA1"/>
</g>
<defs>
<clipPath id="clip0_349_2403">
<rect width="100" height="100" fill="white"/>
</clipPath>
</defs>
</svg>
