<svg width="24" height="24" viewBox="0 0 24 24" fill="none" xmlns="http://www.w3.org/2000/svg">
<path d="M13.8285 3C13.9682 3 14.1042 3.0432 14.2171 3.12338C14.3299 3.20356 14.4138 3.31657 14.4565 3.44614L15.1821 5.64343C15.4869 5.78871 15.7784 5.952 16.0568 6.13586L18.3735 5.64986C18.5101 5.62144 18.6524 5.636 18.7799 5.69146C18.9075 5.74691 19.0137 5.84039 19.0832 5.95843L20.9118 9.04286C20.9816 9.16083 21.0112 9.29736 20.9962 9.43277C20.9813 9.56818 20.9226 9.69547 20.8286 9.79629L19.2389 11.5063C19.2621 11.8342 19.2621 12.1632 19.2389 12.4911L20.8286 14.2037C20.9226 14.3045 20.9813 14.4318 20.9962 14.5672C21.0112 14.7026 20.9816 14.8392 20.9118 14.9571L19.0832 18.0429C19.0135 18.1607 18.9072 18.2539 18.7797 18.3091C18.6521 18.3643 18.5099 18.3787 18.3735 18.3501L16.0568 17.8641C15.7797 18.0467 15.4869 18.2113 15.1834 18.3566L14.4565 20.5539C14.4138 20.6834 14.3299 20.7964 14.2171 20.8766C14.1042 20.9568 13.9682 21 13.8285 21H10.1715C10.0318 21 9.89577 20.9568 9.78291 20.8766C9.67006 20.7964 9.58623 20.6834 9.54349 20.5539L8.81921 18.3579C8.51527 18.213 8.22211 18.0476 7.94188 17.8629L5.62654 18.3501C5.48995 18.3786 5.34763 18.364 5.22007 18.3085C5.09252 18.2531 4.98632 18.1596 4.91677 18.0416L3.08824 14.9571C3.01842 14.8392 2.98884 14.7026 3.00378 14.5672C3.01872 14.4318 3.0774 14.3045 3.17136 14.2037L4.76109 12.4911C4.73806 12.1641 4.73806 11.8359 4.76109 11.5089L3.17136 9.79629C3.0774 9.69547 3.01872 9.56818 3.00378 9.43277C2.98884 9.29736 3.01842 9.16083 3.08824 9.04286L4.91677 5.95714C4.98651 5.83934 5.09279 5.74612 5.22033 5.69091C5.34787 5.63569 5.49009 5.62132 5.62654 5.64986L7.94188 6.13714C8.22157 5.95329 8.51445 5.78743 8.81921 5.64214L9.54481 3.44614C9.58741 3.31699 9.67084 3.20427 9.78317 3.12414C9.89549 3.044 10.0309 3.00055 10.1702 3H13.8272H13.8285ZM13.3457 4.28571H10.6543L9.90498 6.55757L9.39969 6.798C9.15129 6.91646 8.9115 7.05135 8.682 7.20171L8.21498 7.51029L5.81916 7.00629L4.47349 9.27943L6.116 11.0511L6.07642 11.5963C6.05746 11.8651 6.05746 12.1349 6.07642 12.4037L6.116 12.9489L4.47085 14.7206L5.81784 16.9937L8.21366 16.491L8.68068 16.7983C8.91019 16.9487 9.14998 17.0835 9.39837 17.202L9.90366 17.4424L10.6543 19.7143H13.3483L14.1003 17.4411L14.6043 17.202C14.8524 17.0838 15.0918 16.9489 15.3206 16.7983L15.7863 16.491L18.1835 16.9937L19.5292 14.7206L17.8853 12.9489L17.9249 12.4037C17.9439 12.1345 17.9439 11.8643 17.9249 11.595L17.8853 11.0499L19.5305 9.27943L18.1835 7.00629L15.7863 7.50771L15.3206 7.20171C15.0918 7.05105 14.8524 6.91615 14.6043 6.798L14.1003 6.55886L13.347 4.28571H13.3457ZM12 8.14286C13.0497 8.14286 14.0564 8.54923 14.7986 9.27259C15.5409 9.99594 15.9579 10.977 15.9579 12C15.9579 13.023 15.5409 14.0041 14.7986 14.7274C14.0564 15.4508 13.0497 15.8571 12 15.8571C10.9503 15.8571 9.94362 15.4508 9.20138 14.7274C8.45914 14.0041 8.04215 13.023 8.04215 12C8.04215 10.977 8.45914 9.99594 9.20138 9.27259C9.94362 8.54923 10.9503 8.14286 12 8.14286ZM12 9.42857C11.3002 9.42857 10.6291 9.69949 10.1343 10.1817C9.63942 10.664 9.36143 11.318 9.36143 12C9.36143 12.682 9.63942 13.336 10.1343 13.8183C10.6291 14.3005 11.3002 14.5714 12 14.5714C12.6998 14.5714 13.3709 14.3005 13.8657 13.8183C14.3606 13.336 14.6386 12.682 14.6386 12C14.6386 11.318 14.3606 10.664 13.8657 10.1817C13.3709 9.69949 12.6998 9.42857 12 9.42857Z" fill="#073BA1"/>
</svg>
