<svg width="64" height="64" viewBox="0 0 64 64" fill="none" xmlns="http://www.w3.org/2000/svg">
<path d="M39.167 44.6687C42.5697 44.6687 43.8965 46.2151 44.9032 49.6421L45.0801 50.2707C45.5562 52.0134 45.8398 52.5359 46.4147 52.7773C47.0885 53.0611 47.5359 53.0213 48.2435 52.65L48.6259 52.4325C48.7638 52.3476 48.9121 52.2495 49.0838 52.1354L50.8086 50.9392C52.4111 49.8649 53.8523 49.1541 55.6031 48.7084C56.102 48.589 56.627 48.6746 57.0646 48.9466C57.5022 49.2187 57.8173 49.6554 57.9417 50.1623C58.066 50.6693 57.9898 51.2058 57.7294 51.6559C57.469 52.106 57.0453 52.4336 56.55 52.5678C55.4961 52.8408 54.4903 53.2792 53.5687 53.8675L52.7935 54.3714L51.5448 55.2414C51.0592 55.5891 50.5526 55.9054 50.0281 56.1884C48.3554 57.0637 46.7243 57.2122 44.9293 56.4536C42.9886 55.642 42.2081 54.3874 41.4771 51.8914L41.0713 50.4511C40.6004 48.8888 40.2778 48.6474 39.167 48.6474C38.3606 48.6474 37.5281 49.0586 36.3861 50.0347L35.9074 50.4617L33.5114 52.7826C29.8486 56.2945 26.7242 58 22.2523 58C17.8663 58 14.0733 57.3263 10.8891 55.9603L18.5556 53.8277C19.7185 53.955 20.9516 54.0213 22.2523 54.0213C25.3298 54.0213 27.5385 52.9205 30.283 50.406L30.9542 49.7721L32.3382 48.4193C32.9521 47.8172 33.4152 47.3849 33.8782 46.987C35.6576 45.4671 37.2732 44.6687 39.167 44.6687ZM50.3013 8.78096C52.0462 10.5611 53.0264 12.9749 53.0264 15.4917C53.0264 18.0085 52.0462 20.4222 50.3013 22.2024L49.5521 22.9716C52.5463 26.6851 52.4397 30.6266 49.6535 33.4754L44.448 38.7803C44.0816 39.1531 43.585 39.3623 43.0674 39.3618C42.5497 39.3613 42.0535 39.1512 41.6878 38.7776C41.3222 38.4041 41.117 37.8977 41.1175 37.3699C41.118 36.8422 41.3241 36.3362 41.6904 35.9634L46.8908 30.6638C48.1525 29.372 48.2955 27.7726 46.7867 25.7859L24.3699 48.6474C23.649 49.3825 22.7522 49.9128 21.7684 50.1859L8.46197 53.886C8.13026 53.9778 7.78066 53.9786 7.44855 53.8883C7.11645 53.7981 6.81362 53.6199 6.57071 53.372C6.32781 53.1241 6.15345 52.8151 6.06529 52.4764C5.97712 52.1377 5.97827 51.7812 6.06863 51.4431L9.69506 37.8731C9.96328 36.871 10.4834 35.9577 11.2039 35.2233L37.1379 8.78096C38.0023 7.89931 39.0285 7.19992 40.158 6.72276C41.2876 6.2456 42.4982 6 43.7209 6C44.9435 6 46.1542 6.2456 47.2837 6.72276C48.4132 7.19992 49.4395 7.89931 50.3039 8.78096H50.3013Z" fill="#073BA1"/>
</svg>
