<svg width="24" height="24" viewBox="0 0 24 24" fill="none" xmlns="http://www.w3.org/2000/svg">
<path d="M21.8163 9.697H15.9699C15.8694 9.697 15.7872 9.77988 15.7872 9.88116V10.9861C15.7872 11.0874 15.8694 11.1703 15.9699 11.1703H21.8163C21.9167 11.1703 21.999 11.0874 21.999 10.9861V9.88116C21.999 9.77988 21.9167 9.697 21.8163 9.697ZM18.7561 12.8277H15.9699C15.8694 12.8277 15.7872 12.9106 15.7872 13.0119V14.1168C15.7872 14.2181 15.8694 14.301 15.9699 14.301H18.7561C18.8565 14.301 18.9388 14.2181 18.9388 14.1168V13.0119C18.9388 12.9106 18.8565 12.8277 18.7561 12.8277ZM11.1353 7.63672H10.1464C10.0048 7.63672 9.89062 7.75182 9.89062 7.89454V13.6035C9.89062 13.6864 9.92945 13.7623 9.99568 13.8107L13.3961 16.3106C13.5103 16.3935 13.6702 16.3705 13.7524 16.2554L14.3393 15.4474V15.4451C14.4215 15.33 14.3964 15.1688 14.2822 15.086L11.3888 12.9773V7.89454C11.391 7.75182 11.2746 7.63672 11.1353 7.63672Z" fill="#073BA1"/>
<path d="M18.7352 15.7261H17.4152C17.2873 15.7261 17.1663 15.7929 17.0977 15.9034C16.8077 16.3661 16.4697 16.7943 16.0815 17.1856C15.4124 17.8601 14.6336 18.3895 13.7681 18.7579C12.8706 19.14 11.9182 19.3334 10.9362 19.3334C9.95196 19.3334 8.99964 19.14 8.10442 18.7579C7.23889 18.3895 6.46014 17.8601 5.79101 17.1856C5.12187 16.5111 4.59662 15.7261 4.23122 14.8537C3.85212 13.9513 3.66029 12.9914 3.66029 11.9992C3.66029 11.007 3.85212 10.0494 4.23122 9.14473C4.59662 8.27227 5.12187 7.48729 5.79101 6.81281C6.46014 6.13832 7.23889 5.60886 8.10442 5.24054C8.99964 4.85841 9.95424 4.66504 10.9362 4.66504C11.9205 4.66504 12.8728 4.85841 13.7681 5.24054C14.6336 5.60886 15.4124 6.13832 16.0815 6.81281C16.4697 7.20415 16.8077 7.63232 17.0977 8.09502C17.1663 8.20551 17.2873 8.27227 17.4152 8.27227H18.7352C18.8928 8.27227 18.9932 8.10653 18.9224 7.9661C17.4335 4.98042 14.4144 3.03984 11.0436 3.0007C6.10844 2.93855 2.00915 7.01078 2.00002 11.9808C1.99088 16.96 5.99426 21 10.934 21C14.3481 21 17.4175 19.0525 18.9224 16.0323C18.9932 15.8919 18.8905 15.7261 18.7352 15.7261Z" fill="#073BA1"/>
</svg>
