<svg width="100" height="100" viewBox="0 0 100 100" fill="none" xmlns="http://www.w3.org/2000/svg">
<g clip-path="url(#clip0_390_3150)">
<circle cx="50" cy="50" r="50" fill="#EBF2FF"/>
<path d="M49.5 22V35.8938C49.5 37.473 50.1163 38.9875 51.2134 40.1042C52.3105 41.2209 53.7985 41.8482 55.35 41.8482H69V71.6205C69 73.1998 68.3837 74.7143 67.2866 75.831C66.1895 76.9477 64.7015 77.575 63.15 77.575H35.85C34.2985 77.575 32.8105 76.9477 31.7134 75.831C30.6163 74.7143 30 73.1998 30 71.6205V27.9545C30 26.3752 30.6163 24.8607 31.7134 23.744C32.8105 22.6273 34.2985 22 35.85 22H49.5ZM53.4 22.9924V35.8938C53.4 36.4202 53.6054 36.925 53.9711 37.2972C54.3368 37.6695 54.8328 37.8786 55.35 37.8786H68.025L53.4 22.9924Z" fill="#073BA1"/>
<path fill-rule="evenodd" clip-rule="evenodd" d="M60.571 47.3971H36.4161V49.4459H60.571V47.3971ZM60.571 52.8608H36.4161V54.9097H60.571V52.8608ZM36.4161 58.3243H60.571V60.3732H36.4161V58.3243ZM60.571 63.7881H36.4161V65.8369H60.571V63.7881Z" fill="white"/>
</g>
<defs>
<clipPath id="clip0_390_3150">
<rect width="100" height="100" fill="white"/>
</clipPath>
</defs>
</svg>
