<svg width="52" height="54" viewBox="0 0 52 54" fill="none" xmlns="http://www.w3.org/2000/svg">
<path d="M24.64 41.44C24.64 45.985 26.4432 50.1066 29.3754 53.1306C27.2026 53.5405 24.8662 53.76 22.4 53.76C9.4304 53.76 0 48.0099 0 39.6816V38.08C0 36.2978 0.707998 34.5885 1.96824 33.3282C3.22849 32.068 4.93775 31.36 6.72 31.36H28C25.814 34.2654 24.6345 37.8041 24.64 41.44ZM22.4 0C24.165 -2.63e-08 25.9127 0.347636 27.5433 1.02306C29.1739 1.69848 30.6555 2.68847 31.9035 3.93649C33.1515 5.1845 34.1415 6.66612 34.8169 8.29674C35.4924 9.92735 35.84 11.675 35.84 13.44C35.84 15.205 35.4924 16.9527 34.8169 18.5833C34.1415 20.2139 33.1515 21.6955 31.9035 22.9435C30.6555 24.1915 29.1739 25.1815 27.5433 25.8569C25.9127 26.5324 24.165 26.88 22.4 26.88C18.8355 26.88 15.417 25.464 12.8965 22.9435C10.376 20.423 8.96 17.0045 8.96 13.44C8.96 9.87549 10.376 6.45697 12.8965 3.93649C15.417 1.416 18.8355 5.31153e-08 22.4 0ZM38.8618 32.3008C40.8215 31.7116 42.9238 31.811 44.8192 32.5825C46.7145 33.3539 48.2887 34.7509 49.28 36.5411V34.72C49.28 34.423 49.398 34.1381 49.608 33.928C49.8181 33.718 50.103 33.6 50.4 33.6C50.697 33.6 50.9819 33.718 51.192 33.928C51.402 34.1381 51.52 34.423 51.52 34.72V39.2C51.52 39.497 51.402 39.7819 51.192 39.992C50.9819 40.202 50.697 40.32 50.4 40.32H45.92C45.623 40.32 45.3381 40.202 45.128 39.992C44.918 39.7819 44.8 39.497 44.8 39.2C44.8 38.903 44.918 38.6181 45.128 38.408C45.3381 38.198 45.623 38.08 45.92 38.08H47.5485C47.0975 37.094 46.4144 36.2319 45.5577 35.5674C44.7011 34.9028 43.6962 34.4556 42.6291 34.2638C41.5619 34.0721 40.4642 34.1416 39.4298 34.4664C38.3954 34.7912 37.455 35.3617 36.689 36.129C36.4777 36.333 36.1948 36.4459 35.9012 36.4433C35.6075 36.4408 35.3266 36.323 35.1189 36.1153C34.9113 35.9077 34.7935 35.6268 34.7909 35.3331C34.7884 35.0394 34.9013 34.7565 35.1053 34.5453C36.1524 33.4973 37.4431 32.7254 38.8618 32.2986V32.3008ZM44.0182 50.5792C42.0585 51.1684 39.9562 51.069 38.0608 50.2975C36.1655 49.5261 34.5913 48.1291 33.6 46.3389V48.1622C33.6 48.4593 33.482 48.7442 33.272 48.9542C33.0619 49.1642 32.777 49.2822 32.48 49.2822C32.183 49.2822 31.8981 49.1642 31.688 48.9542C31.478 48.7442 31.36 48.4593 31.36 48.1622V43.6822C31.36 43.3852 31.478 43.1003 31.688 42.8903C31.8981 42.6802 32.183 42.5622 32.48 42.5622H36.96C37.257 42.5622 37.5419 42.6802 37.752 42.8903C37.962 43.1003 38.08 43.3852 38.08 43.6822C38.08 43.9793 37.962 44.2642 37.752 44.4742C37.5419 44.6842 37.257 44.8022 36.96 44.8022H35.3315C35.7825 45.7882 36.4656 46.6503 37.3223 47.3149C38.1789 47.9794 39.1838 48.4267 40.2509 48.6184C41.3181 48.8101 42.4158 48.7406 43.4502 48.4158C44.4846 48.091 45.425 47.5206 46.191 46.7533C46.4023 46.5493 46.6852 46.4364 46.9788 46.4389C47.2725 46.4415 47.5534 46.5593 47.7611 46.7669C47.9687 46.9746 48.0865 47.2555 48.0891 47.5492C48.0916 47.8428 47.9787 48.1257 47.7747 48.337C46.7276 49.3849 45.4369 50.1568 44.0182 50.5837V50.5792Z" fill="#073BA1"/>
</svg>
