<svg width="18" height="18" viewBox="0 0 18 18" fill="none" xmlns="http://www.w3.org/2000/svg">
<path d="M17.0786 1.04056C16.7709 0.716961 16.4015 0.458209 15.9922 0.279548C15.5829 0.100888 15.142 0.00593056 14.6954 0.000269027C14.2488 -0.00539251 13.8057 0.0783562 13.392 0.246583C12.9783 0.414809 12.6024 0.664113 12.2866 0.979809L1.73815 11.5274C1.36922 11.8963 1.11316 12.3627 1.00004 12.8719L0.0132759 17.316C-0.00716008 17.4084 -0.00395997 17.5044 0.0225799 17.5952C0.0491198 17.6861 0.0981421 17.7687 0.16511 17.8356C0.232078 17.9024 0.314828 17.9513 0.405702 17.9777C0.496576 18.0041 0.592638 18.0071 0.684998 17.9865L5.10239 17.0043C5.62833 16.8872 6.10998 16.6226 6.49084 16.2415L17.0201 5.71302C17.6373 5.09562 17.9888 4.26156 17.9997 3.38869C18.0107 2.51582 17.6801 1.67322 17.0786 1.04056ZM13.082 1.77637C13.5014 1.37349 14.0621 1.15107 14.6436 1.15685C15.2252 1.16263 15.7813 1.39614 16.1926 1.80728C16.6039 2.21841 16.8376 2.77439 16.8436 3.3559C16.8496 3.9374 16.6274 4.49808 16.2246 4.91759L15.4696 5.67252L12.3271 2.53129L13.082 1.77637ZM11.5316 3.32673L14.6741 6.46908L5.69535 15.4472C5.46562 15.6767 5.17523 15.8359 4.85823 15.9062L1.30271 16.6961L2.09933 13.116C2.1656 12.8154 2.31672 12.5402 2.53477 12.3229L11.5316 3.32673Z" fill="#073BA1"/>
<path d="M4.85823 15.9062C5.17523 15.8359 5.46562 15.6767 5.69535 15.4472L2.53477 12.3229C2.31672 12.5402 2.1656 12.8154 2.09933 13.116L4.85823 15.9062Z" fill="#073BA1"/>
</svg>
