<svg width="70" height="40" viewBox="0 0 70 40" fill="none" xmlns="http://www.w3.org/2000/svg">
<g filter="url(#filter0_d_90_104)">
<g clip-path="url(#clip0_90_104)">
<rect x="5" y="4" width="60" height="30" rx="4" fill="white"/>
<rect x="5" y="4" width="60" height="30" rx="5" fill="white"/>
<path d="M32.0666 25.798H28.5023L30.7317 12.2456H34.2958L32.0666 25.798Z" fill="#00579F"/>
<path d="M44.9876 12.577C44.2846 12.3028 43.1695 12 41.7907 12C38.2708 12 35.7922 13.8453 35.777 16.4836C35.7477 18.4301 37.5516 19.5113 38.9008 20.1603C40.2798 20.8235 40.7485 21.2564 40.7485 21.8475C40.7345 22.7554 39.6342 23.1739 38.608 23.1739C37.185 23.1739 36.4225 22.9582 35.2638 22.4531L34.7944 22.2365L34.2957 25.2787C35.1316 25.6532 36.6718 25.9854 38.2708 26C42.0108 26 44.4456 24.1832 44.4744 21.3717C44.4886 19.829 43.5361 18.6468 41.4825 17.6809C40.2359 17.0608 39.4724 16.6427 39.4724 16.0082C39.4871 15.4314 40.1182 14.8406 41.5254 14.8406C42.6842 14.8117 43.5355 15.0855 44.1805 15.3595L44.5029 15.5035L44.9876 12.577Z" fill="#00579F"/>
<path d="M49.7248 20.9969C50.0183 20.2183 51.1478 17.205 51.1478 17.205C51.133 17.2339 51.4408 16.4121 51.6168 15.9075L51.8659 17.0753C51.8659 17.0753 52.5408 20.3193 52.6874 20.9969C52.1303 20.9969 50.4288 20.9969 49.7248 20.9969ZM54.1245 12.2456H51.3675C50.5173 12.2456 49.8713 12.4905 49.5045 13.3701L44.2102 25.7978H47.9501C47.9501 25.7978 48.5658 24.1251 48.6982 23.7649C49.1085 23.7649 52.7467 23.7649 53.2745 23.7649C53.3768 24.2407 53.6998 25.7978 53.6998 25.7978H57L54.1245 12.2456Z" fill="#00579F"/>
<path d="M25.5253 12.2456L22.0347 21.487L21.6532 19.6128C21.0079 17.4501 18.984 15.1004 16.7253 13.9321L19.9226 25.7836H23.6918L29.2943 12.2456H25.5253Z" fill="#00579F"/>
<path d="M18.7933 12.2456H13.0587L13 12.5194C17.4734 13.6441 20.436 16.355 21.6532 19.6133L20.4066 13.3848C20.2013 12.5192 19.5706 12.2742 18.7933 12.2456Z" fill="#FAA61A"/>
</g>
<rect x="4.5" y="3.5" width="61" height="31" rx="4.5" stroke="#E8EEF3"/>
</g>
<defs>
<filter id="filter0_d_90_104" x="0" y="0" width="70" height="40" filterUnits="userSpaceOnUse" color-interpolation-filters="sRGB">
<feFlood flood-opacity="0" result="BackgroundImageFix"/>
<feColorMatrix in="SourceAlpha" type="matrix" values="0 0 0 0 0 0 0 0 0 0 0 0 0 0 0 0 0 0 127 0" result="hardAlpha"/>
<feOffset dy="1"/>
<feGaussianBlur stdDeviation="2"/>
<feComposite in2="hardAlpha" operator="out"/>
<feColorMatrix type="matrix" values="0 0 0 0 0.027451 0 0 0 0 0.231373 0 0 0 0 0.631373 0 0 0 0.1 0"/>
<feBlend mode="normal" in2="BackgroundImageFix" result="effect1_dropShadow_90_104"/>
<feBlend mode="normal" in="SourceGraphic" in2="effect1_dropShadow_90_104" result="shape"/>
</filter>
<clipPath id="clip0_90_104">
<rect x="5" y="4" width="60" height="30" rx="4" fill="white"/>
</clipPath>
</defs>
</svg>
