<svg width="100" height="100" viewBox="0 0 100 100" fill="none" xmlns="http://www.w3.org/2000/svg">
<g clip-path="url(#clip0_594_7968)">
<circle cx="50" cy="50" r="50" fill="#EBF2FF"/>
<path d="M64.95 57.8744H35.0825C34.725 57.8744 34.4325 58.1697 34.4325 58.5306L34.4244 62.4683C34.4244 62.8293 34.7169 63.1246 35.0744 63.1246H64.95C65.3075 63.1246 65.6 62.8293 65.6 62.4683V58.5306C65.6 58.1697 65.3075 57.8744 64.95 57.8744ZM64.95 65.7497H35.0581C34.7006 65.7497 34.4081 66.0451 34.4081 66.406L34.4 70.3437C34.4 70.7047 34.6925 71 35.05 71H64.95C65.3075 71 65.6 70.7047 65.6 70.3437V66.406C65.6 66.0451 65.3075 65.7497 64.95 65.7497ZM64.95 49.999H35.0988C34.7413 49.999 34.4488 50.2943 34.4488 50.6553L34.4406 54.593C34.4406 54.9539 34.7331 55.2492 35.0906 55.2492H64.95C65.3075 55.2492 65.6 54.9539 65.6 54.593V50.6553C65.6 50.2943 65.3075 49.999 64.95 49.999ZM73.6031 38.5961L51.495 29.3015C51.0198 29.1024 50.5104 29 49.9959 29C49.4815 29 48.9721 29.1024 48.4969 29.3015L26.3969 38.5961C24.9506 39.2113 24 40.6388 24 42.2302V70.3437C24 70.7047 24.2925 71 24.65 71H31.15C31.5075 71 31.8 70.7047 31.8 70.3437V49.999C31.8 48.5552 32.9862 47.3738 34.4488 47.3738H65.5512C67.0137 47.3738 68.2 48.5552 68.2 49.999V70.3437C68.2 70.7047 68.4925 71 68.85 71H75.35C75.7075 71 76 70.7047 76 70.3437V42.2302C76 40.6388 75.0494 39.2113 73.6031 38.5961Z" fill="#073BA1"/>
</g>
<defs>
<clipPath id="clip0_594_7968">
<rect width="100" height="100" fill="white"/>
</clipPath>
</defs>
</svg>
